<?xml version="1.0" encoding="UTF-8"?>
<svg xmlns="http://www.w3.org/2000/svg" xmlns:xlink="http://www.w3.org/1999/xlink" width="1012.5pt" height="487.499991pt" viewBox="0 0 1012.5 487.499991" version="1.2">
<defs>
<filter id="alpha" filterUnits="objectBoundingBox" x="0%" y="0%" width="100%" height="100%">
  <feColorMatrix type="matrix" in="SourceGraphic" values="0 0 0 0 1 0 0 0 0 1 0 0 0 0 1 0 0 0 1 0"/>
</filter>
<mask id="mask0">
  <g filter="url(#alpha)">
<rect x="0" y="0" width="1012.5" height="487.499991" style="fill:rgb(0%,0%,0%);fill-opacity:0.098;stroke:none;"/>
  </g>
</mask>
<clipPath id="clip2">
  <path d="M 314.148438 14.851562 L 461 14.851562 L 461 160.523438 L 314.148438 160.523438 Z M 314.148438 14.851562 "/>
</clipPath>
<clipPath id="clip3">
  <path d="M 460.992188 155.109375 L 320.878906 14.902344 C 318.644531 15.433594 316.429688 15.996094 314.210938 16.59375 L 457.914062 160.382812 C 458.898438 158.605469 459.914062 156.847656 460.992188 155.109375 Z M 460.992188 155.109375 "/>
</clipPath>
<clipPath id="clip4">
  <path d="M 460.992188 155.109375 L 320.878906 14.902344 C 318.644531 15.433594 316.429688 15.996094 314.210938 16.59375 L 457.914062 160.382812 C 458.898438 158.605469 459.914062 156.847656 460.992188 155.109375 "/>
</clipPath>
<clipPath id="clip5">
  <path d="M 330.234375 11.414062 L 469.253906 11.414062 L 469.253906 148.332031 L 330.234375 148.332031 Z M 330.234375 11.414062 "/>
</clipPath>
<clipPath id="clip6">
  <path d="M 469.207031 143.425781 L 337.4375 11.5625 C 335.0625 11.953125 332.703125 12.378906 330.34375 12.839844 L 465.613281 148.1875 C 466.769531 146.578125 467.972656 144.988281 469.207031 143.425781 Z M 469.207031 143.425781 "/>
</clipPath>
<clipPath id="clip7">
  <path d="M 469.207031 143.425781 L 337.4375 11.5625 C 335.0625 11.953125 332.703125 12.378906 330.34375 12.839844 L 465.613281 148.1875 C 466.769531 146.578125 467.972656 144.988281 469.207031 143.425781 "/>
</clipPath>
<clipPath id="clip8">
  <path d="M 347.417969 9.550781 L 478.625 9.550781 L 478.625 137.234375 L 347.417969 137.234375 Z M 347.417969 9.550781 "/>
</clipPath>
<clipPath id="clip9">
  <path d="M 478.59375 132.90625 L 355.101562 9.339844 C 352.574219 9.5625 350.058594 9.820312 347.527344 10.125 L 474.519531 137.191406 C 475.828125 135.738281 477.1875 134.308594 478.59375 132.90625 Z M 478.59375 132.90625 "/>
</clipPath>
<clipPath id="clip10">
  <path d="M 478.59375 132.90625 L 355.101562 9.339844 C 352.574219 9.5625 350.058594 9.820312 347.527344 10.125 L 474.519531 137.191406 C 475.828125 135.738281 477.1875 134.308594 478.59375 132.90625 "/>
</clipPath>
<clipPath id="clip11">
  <path d="M 298.996094 19.070312 L 454.101562 19.070312 L 454.101562 173.96875 L 298.996094 173.96875 Z M 298.996094 19.070312 "/>
</clipPath>
<clipPath id="clip12">
  <path d="M 454.023438 168.042969 L 305.273438 19.203125 C 303.183594 19.859375 301.089844 20.550781 298.996094 21.269531 L 451.507812 173.890625 C 452.289062 171.917969 453.132812 169.964844 454.023438 168.042969 Z M 454.023438 168.042969 "/>
</clipPath>
<clipPath id="clip13">
  <path d="M 454.023438 168.042969 L 305.273438 19.203125 C 303.183594 19.859375 301.089844 20.550781 298.996094 21.269531 L 451.507812 173.890625 C 452.289062 171.917969 453.132812 169.964844 454.023438 168.042969 "/>
</clipPath>
<clipPath id="clip14">
  <path d="M 258 36.890625 L 442.855469 36.890625 L 442.855469 224.921875 L 258 224.921875 Z M 258 36.890625 "/>
</clipPath>
<clipPath id="clip15">
  <path d="M 442.730469 216.449219 L 263.367188 36.984375 C 261.582031 37.957031 259.796875 38.957031 258.023438 39.984375 L 442.792969 224.875 C 442.683594 222.078125 442.652344 219.265625 442.730469 216.449219 Z M 442.730469 216.449219 "/>
</clipPath>
<clipPath id="clip16">
  <path d="M 442.730469 216.449219 L 263.367188 36.984375 C 261.582031 37.957031 259.796875 38.957031 258.023438 39.984375 L 442.792969 224.875 C 442.683594 222.078125 442.652344 219.265625 442.730469 216.449219 "/>
</clipPath>
<clipPath id="clip17">
  <path d="M 245.730469 44.234375 L 445.980469 44.234375 L 445.980469 248 L 245.730469 248 Z M 245.730469 44.234375 "/>
</clipPath>
<clipPath id="clip18">
  <path d="M 443.996094 237.628906 L 250.824219 44.328125 C 249.125 45.398438 247.433594 46.492188 245.753906 47.609375 L 445.96875 247.960938 C 445.175781 244.535156 444.519531 241.082031 444.003906 237.628906 Z M 443.996094 237.628906 "/>
</clipPath>
<clipPath id="clip19">
  <path d="M 443.996094 237.628906 L 250.824219 44.328125 C 249.125 45.398438 247.433594 46.492188 245.753906 47.609375 L 445.96875 247.960938 C 445.175781 244.535156 444.519531 241.082031 444.003906 237.628906 "/>
</clipPath>
<clipPath id="clip20">
  <path d="M 270.878906 30.167969 L 444.574219 30.167969 L 444.574219 205.695312 L 270.878906 205.695312 Z M 270.878906 30.167969 "/>
</clipPath>
<clipPath id="clip21">
  <path d="M 444.542969 198.351562 L 276.597656 30.308594 C 274.707031 31.1875 272.828125 32.09375 270.957031 33.023438 L 443.480469 205.660156 C 443.761719 203.207031 444.121094 200.785156 444.542969 198.347656 Z M 444.542969 198.351562 "/>
</clipPath>
<clipPath id="clip22">
  <path d="M 444.542969 198.351562 L 276.597656 30.308594 C 274.707031 31.1875 272.828125 32.09375 270.957031 33.023438 L 443.480469 205.660156 C 443.761719 203.207031 444.121094 200.785156 444.542969 198.347656 "/>
</clipPath>
<clipPath id="clip23">
  <path d="M 365.847656 9.550781 L 489.246094 9.550781 L 489.246094 127.390625 L 365.847656 127.390625 Z M 365.847656 9.550781 "/>
</clipPath>
<clipPath id="clip24">
  <path d="M 489.089844 123.515625 L 374.097656 8.441406 C 371.378906 8.460938 368.660156 8.527344 365.941406 8.640625 L 484.546875 127.324219 C 486.03125 126.011719 487.558594 124.742188 489.089844 123.515625 Z M 489.089844 123.515625 "/>
</clipPath>
<clipPath id="clip25">
  <path d="M 489.089844 123.515625 L 374.097656 8.441406 C 371.378906 8.460938 368.660156 8.527344 365.941406 8.640625 L 484.546875 127.324219 C 486.03125 126.011719 487.558594 124.742188 489.089844 123.515625 "/>
</clipPath>
<clipPath id="clip26">
  <path d="M 284.46875 24.230469 L 448.480469 24.230469 L 448.480469 188.972656 L 284.46875 188.972656 Z M 284.46875 24.230469 "/>
</clipPath>
<clipPath id="clip27">
  <path d="M 448.464844 182.375 L 290.546875 24.355469 C 288.558594 25.140625 286.570312 25.9375 284.597656 26.765625 L 446.589844 188.867188 C 447.152344 186.695312 447.777344 184.535156 448.464844 182.378906 Z M 448.464844 182.375 "/>
</clipPath>
<clipPath id="clip28">
  <path d="M 448.464844 182.375 L 290.546875 24.355469 C 288.558594 25.140625 286.570312 25.9375 284.597656 26.765625 L 446.589844 188.867188 C 447.152344 186.695312 447.777344 184.535156 448.464844 182.378906 "/>
</clipPath>
<clipPath id="clip29">
  <path d="M 504.085938 326.050781 L 567.191406 326.050781 L 567.191406 385.601562 L 504.085938 385.601562 Z M 504.085938 326.050781 "/>
</clipPath>
<clipPath id="clip30">
  <path d="M 563.519531 385.492188 C 564.722656 383.898438 565.910156 382.304688 567.066406 380.679688 L 520.269531 333.851562 C 514.753906 331.675781 509.351562 329.082031 504.132812 326.066406 Z M 563.519531 385.492188 "/>
</clipPath>
<clipPath id="clip31">
  <path d="M 563.519531 385.492188 C 564.722656 383.898438 565.910156 382.304688 567.066406 380.679688 L 520.269531 333.851562 C 514.753906 331.675781 509.351562 329.082031 504.132812 326.066406 L 563.519531 385.492188 "/>
</clipPath>
<clipPath id="clip32">
  <path d="M 234.015625 52.207031 L 459.101562 52.207031 L 459.101562 281 L 234.015625 281 Z M 234.015625 52.207031 "/>
</clipPath>
<clipPath id="clip33">
  <path d="M 451.226562 264.765625 L 238.921875 52.316406 C 237.3125 53.484375 235.707031 54.667969 234.117188 55.871094 L 459.011719 280.917969 C 456 275.695312 453.40625 270.304688 451.234375 264.769531 Z M 451.226562 264.765625 "/>
</clipPath>
<clipPath id="clip34">
  <path d="M 451.226562 264.765625 L 238.921875 52.316406 C 237.3125 53.484375 235.707031 54.667969 234.117188 55.871094 L 459.011719 280.917969 C 456 275.695312 453.40625 270.304688 451.234375 264.769531 "/>
</clipPath>
<clipPath id="clip35">
  <path d="M 537.042969 339.023438 L 575.15625 339.023438 L 575.15625 373.878906 L 537.042969 373.878906 Z M 537.042969 339.023438 "/>
</clipPath>
<clipPath id="clip36">
  <path d="M 571.78125 373.847656 C 572.890625 372.175781 573.984375 370.472656 575.0625 368.769531 L 547.382812 341.085938 C 543.933594 340.570312 540.480469 339.914062 537.058594 339.117188 Z M 571.78125 373.847656 "/>
</clipPath>
<clipPath id="clip37">
  <path d="M 571.78125 373.847656 C 572.890625 372.175781 573.984375 370.472656 575.0625 368.769531 L 547.382812 341.085938 C 543.933594 340.570312 540.480469 339.914062 537.058594 339.117188 L 571.78125 373.847656 "/>
</clipPath>
<clipPath id="clip38">
  <path d="M 385.84375 9.550781 L 500.804688 9.550781 L 500.804688 118.636719 L 385.84375 118.636719 Z M 385.84375 9.550781 "/>
</clipPath>
<clipPath id="clip39">
  <path d="M 500.773438 115.292969 L 394.746094 9.199219 C 391.777344 8.957031 388.8125 8.777344 385.84375 8.652344 L 495.714844 118.601562 C 497.386719 117.457031 499.070312 116.351562 500.773438 115.292969 Z M 500.773438 115.292969 "/>
</clipPath>
<clipPath id="clip40">
  <path d="M 500.773438 115.292969 L 394.746094 9.199219 C 391.777344 8.957031 388.8125 8.777344 385.84375 8.652344 L 495.714844 118.601562 C 497.386719 117.457031 499.070312 116.351562 500.773438 115.292969 "/>
</clipPath>
<clipPath id="clip41">
  <path d="M 560.003906 342.148438 L 582.5 342.148438 L 582.5 361.6875 L 560.003906 361.6875 Z M 560.003906 342.148438 "/>
</clipPath>
<clipPath id="clip42">
  <path d="M 579.40625 361.578125 C 580.421875 359.796875 581.4375 358.015625 582.40625 356.214844 L 568.550781 342.351562 C 565.753906 342.429688 562.941406 342.414062 560.128906 342.289062 Z M 579.40625 361.578125 "/>
</clipPath>
<clipPath id="clip43">
  <path d="M 579.40625 361.578125 C 580.421875 359.796875 581.4375 358.015625 582.40625 356.214844 L 568.550781 342.351562 C 565.753906 342.429688 562.941406 342.414062 560.128906 342.289062 L 579.40625 361.578125 "/>
</clipPath>
<clipPath id="clip44">
  <path d="M 501.585938 44.859375 L 559.691406 44.859375 L 559.691406 97.535156 L 501.585938 97.535156 Z M 501.585938 44.859375 "/>
</clipPath>
<clipPath id="clip45">
  <path d="M 559.675781 97.074219 C 554.242188 90.257812 548.367188 83.671875 542.058594 77.359375 C 529.5625 64.859375 516.003906 54.0625 501.695312 44.960938 L 554.148438 97.453125 C 555.992188 97.285156 557.835938 97.160156 559.675781 97.074219 Z M 559.675781 97.074219 "/>
</clipPath>
<clipPath id="clip46">
  <path d="M 559.675781 97.074219 C 554.242188 90.257812 548.367188 83.671875 542.058594 77.359375 C 529.5625 64.859375 516.003906 54.0625 501.695312 44.960938 L 554.148438 97.453125 C 555.992188 97.285156 557.835938 97.160156 559.675781 97.074219 "/>
</clipPath>
<clipPath id="clip47">
  <path d="M 407.554688 10.472656 L 513.769531 10.472656 L 513.769531 111.132812 L 407.554688 111.132812 Z M 407.554688 10.472656 "/>
</clipPath>
<clipPath id="clip48">
  <path d="M 513.691406 108.316406 L 417.597656 12.164062 C 414.300781 11.574219 410.992188 11.050781 407.679688 10.597656 L 508.101562 111.085938 C 509.945312 110.113281 511.800781 109.191406 513.691406 108.316406 Z M 513.691406 108.316406 "/>
</clipPath>
<clipPath id="clip49">
  <path d="M 513.691406 108.316406 L 417.597656 12.164062 C 414.300781 11.574219 410.992188 11.050781 407.679688 10.597656 L 508.101562 111.085938 C 509.945312 110.113281 511.800781 109.191406 513.691406 108.316406 "/>
</clipPath>
<clipPath id="clip50">
  <path d="M 461.289062 24.386719 L 544 24.386719 L 544 100.347656 L 461.289062 100.347656 Z M 461.289062 24.386719 "/>
</clipPath>
<clipPath id="clip51">
  <path d="M 543.964844 98.808594 L 476.03125 30.828125 C 471.207031 28.554688 466.316406 26.445312 461.367188 24.515625 L 537.042969 100.238281 C 539.339844 99.695312 541.652344 99.21875 543.964844 98.808594 Z M 543.964844 98.808594 "/>
</clipPath>
<clipPath id="clip52">
  <path d="M 543.964844 98.808594 L 476.03125 30.828125 C 471.207031 28.554688 466.316406 26.445312 461.367188 24.515625 L 537.042969 100.238281 C 539.339844 99.695312 541.652344 99.21875 543.964844 98.808594 "/>
</clipPath>
<clipPath id="clip53">
  <path d="M 432.234375 15.164062 L 528 15.164062 L 528 105 L 432.234375 105 Z M 432.234375 15.164062 "/>
</clipPath>
<clipPath id="clip54">
  <path d="M 528 102.738281 L 443.761719 18.441406 C 439.949219 17.292969 436.109375 16.242188 432.265625 15.289062 L 521.800781 104.902344 C 523.859375 104.121094 525.921875 103.402344 528 102.742188 Z M 528 102.738281 "/>
</clipPath>
<clipPath id="clip55">
  <path d="M 528 102.738281 L 443.761719 18.441406 C 439.949219 17.292969 436.109375 16.242188 432.265625 15.289062 L 521.800781 104.902344 C 523.859375 104.121094 525.921875 103.402344 528 102.742188 "/>
</clipPath>
<clipPath id="clip56">
  <path d="M 579.21875 340.429688 L 589.214844 340.429688 L 589.214844 348.714844 L 579.21875 348.714844 Z M 579.21875 340.429688 "/>
</clipPath>
<clipPath id="clip57">
  <path d="M 586.355469 348.636719 C 587.292969 346.761719 588.199219 344.886719 589.074219 342.992188 L 586.636719 340.539062 C 584.199219 340.976562 581.78125 341.320312 579.328125 341.601562 Z M 586.355469 348.636719 "/>
</clipPath>
<clipPath id="clip58">
  <path d="M 586.355469 348.636719 C 587.292969 346.761719 588.199219 344.886719 589.074219 342.992188 L 586.636719 340.539062 C 584.199219 340.976562 581.78125 341.320312 579.328125 341.601562 L 586.355469 348.636719 "/>
</clipPath>
<clipPath id="clip59">
  <path d="M 156.855469 151.460938 L 468 151.460938 L 468 462.816406 L 156.855469 462.816406 Z M 156.855469 151.460938 "/>
</clipPath>
<clipPath id="clip60">
  <path d="M 156.886719 157.527344 L 461.929688 462.789062 C 463.925781 462.007812 465.894531 461.195312 467.863281 460.351562 L 159.308594 151.605469 C 158.476562 153.570312 157.664062 155.546875 156.886719 157.535156 Z M 156.886719 157.527344 "/>
</clipPath>
<clipPath id="clip61">
  <path d="M 156.886719 157.527344 L 461.929688 462.789062 C 463.925781 462.007812 465.894531 461.195312 467.863281 460.351562 L 159.308594 151.605469 C 158.476562 153.570312 157.664062 155.546875 156.886719 157.535156 "/>
</clipPath>
<clipPath id="clip62">
  <path d="M 162.789062 138 L 481.59375 138 L 481.59375 456.875 L 162.789062 456.875 Z M 162.789062 138 "/>
</clipPath>
<clipPath id="clip63">
  <path d="M 162.878906 143.621094 L 475.824219 456.789062 C 477.714844 455.898438 479.585938 454.992188 481.445312 454.054688 L 165.609375 138.011719 C 164.667969 139.871094 163.757812 141.742188 162.871094 143.628906 Z M 162.878906 143.621094 "/>
</clipPath>
<clipPath id="clip64">
  <path d="M 162.878906 143.621094 L 475.824219 456.789062 C 477.714844 455.898438 479.585938 454.992188 481.445312 454.054688 L 165.609375 138.011719 C 164.667969 139.871094 163.757812 141.742188 162.871094 143.628906 "/>
</clipPath>
<clipPath id="clip65">
  <path d="M 151.542969 165.839844 L 453.632812 165.839844 L 453.632812 468 L 151.542969 468 Z M 151.542969 165.839844 "/>
</clipPath>
<clipPath id="clip66">
  <path d="M 151.671875 172.214844 L 447.265625 467.988281 C 449.359375 467.332031 451.453125 466.628906 453.527344 465.910156 L 153.765625 165.949219 C 153.039062 168.027344 152.34375 170.121094 151.675781 172.214844 Z M 151.671875 172.214844 "/>
</clipPath>
<clipPath id="clip67">
  <path d="M 151.671875 172.214844 L 447.265625 467.988281 C 449.359375 467.332031 451.453125 466.628906 453.527344 465.910156 L 153.765625 165.949219 C 153.039062 168.027344 152.34375 170.121094 151.675781 172.214844 "/>
</clipPath>
<clipPath id="clip68">
  <path d="M 169.507812 125.042969 L 494.402344 125.042969 L 494.402344 450.15625 L 169.507812 450.15625 Z M 169.507812 125.042969 "/>
</clipPath>
<clipPath id="clip69">
  <path d="M 169.589844 130.433594 L 489.019531 450.058594 C 490.800781 449.074219 492.582031 448.074219 494.34375 447.042969 L 172.621094 125.089844 C 171.585938 126.863281 170.578125 128.640625 169.597656 130.429688 Z M 169.589844 130.433594 "/>
</clipPath>
<clipPath id="clip70">
  <path d="M 169.589844 130.433594 L 489.019531 450.058594 C 490.800781 449.074219 492.582031 448.074219 494.34375 447.042969 L 172.621094 125.089844 C 171.585938 126.863281 170.578125 128.640625 169.597656 130.429688 "/>
</clipPath>
<clipPath id="clip71">
  <path d="M 176.847656 112.851562 L 506.585938 112.851562 L 506.585938 442.808594 L 176.847656 442.808594 Z M 176.847656 112.851562 "/>
</clipPath>
<clipPath id="clip72">
  <path d="M 176.980469 117.925781 L 501.5 442.660156 C 503.21875 441.597656 504.90625 440.503906 506.578125 439.378906 L 180.292969 112.875 C 179.164062 114.546875 178.0625 116.234375 176.988281 117.933594 Z M 176.980469 117.925781 "/>
</clipPath>
<clipPath id="clip73">
  <path d="M 176.980469 117.925781 L 501.5 442.660156 C 503.21875 441.597656 504.90625 440.503906 506.578125 439.378906 L 180.292969 112.875 C 179.164062 114.546875 178.0625 116.234375 176.988281 117.933594 "/>
</clipPath>
<clipPath id="clip74">
  <path d="M 202.777344 79.871094 L 539.542969 79.871094 L 539.542969 416.863281 L 202.777344 416.863281 Z M 202.777344 79.871094 "/>
</clipPath>
<clipPath id="clip75">
  <path d="M 202.832031 84.277344 L 535.144531 416.796875 C 536.582031 415.46875 538.019531 414.109375 539.441406 412.734375 L 206.890625 79.980469 C 205.523438 81.398438 204.167969 82.828125 202.835938 84.273438 Z M 202.832031 84.277344 "/>
</clipPath>
<clipPath id="clip76">
  <path d="M 202.832031 84.277344 L 535.144531 416.796875 C 536.582031 415.46875 538.019531 414.109375 539.441406 412.734375 L 206.890625 79.980469 C 205.523438 81.398438 204.167969 82.828125 202.835938 84.273438 "/>
</clipPath>
<clipPath id="clip77">
  <path d="M 193.5625 90.1875 L 529.234375 90.1875 L 529.234375 426 L 193.5625 426 Z M 193.5625 90.1875 "/>
</clipPath>
<clipPath id="clip78">
  <path d="M 193.667969 94.8125 L 524.609375 425.972656 C 526.125 424.722656 527.640625 423.441406 529.140625 422.160156 L 197.480469 90.265625 C 196.1875 91.769531 194.917969 93.289062 193.667969 94.8125 Z M 193.667969 94.8125 "/>
</clipPath>
<clipPath id="clip79">
  <path d="M 193.667969 94.8125 L 524.609375 425.972656 C 526.125 424.722656 527.640625 423.441406 529.140625 422.160156 L 197.480469 90.265625 C 196.1875 91.769531 194.917969 93.289062 193.667969 94.8125 "/>
</clipPath>
<clipPath id="clip80">
  <path d="M 147.171875 181 L 438.480469 181 L 438.480469 472.507812 L 147.171875 472.507812 Z M 147.171875 181 "/>
</clipPath>
<clipPath id="clip81">
  <path d="M 147.308594 187.753906 L 431.71875 472.367188 C 433.9375 471.820312 436.15625 471.242188 438.355469 470.628906 L 149.027344 181.125 C 148.429688 183.328125 147.851562 185.535156 147.308594 187.753906 Z M 147.308594 187.753906 "/>
</clipPath>
<clipPath id="clip82">
  <path d="M 147.308594 187.753906 L 431.71875 472.367188 C 433.9375 471.820312 436.15625 471.242188 438.355469 470.628906 L 149.027344 181.125 C 148.429688 183.328125 147.851562 185.535156 147.308594 187.753906 "/>
</clipPath>
<clipPath id="clip83">
  <path d="M 185 101.128906 L 518.300781 101.128906 L 518.300781 434.679688 L 185 434.679688 Z M 185 101.128906 "/>
</clipPath>
<clipPath id="clip84">
  <path d="M 185.015625 106.0625 L 513.363281 434.640625 C 514.972656 433.453125 516.582031 432.265625 518.15625 431.0625 L 188.578125 101.246094 C 187.363281 102.839844 186.179688 104.441406 185.015625 106.054688 Z M 185.015625 106.0625 "/>
</clipPath>
<clipPath id="clip85">
  <path d="M 185.015625 106.0625 L 513.363281 434.640625 C 514.972656 433.453125 516.582031 432.265625 518.15625 431.0625 L 188.578125 101.246094 C 187.363281 102.839844 186.179688 104.441406 185.015625 106.054688 "/>
</clipPath>
<clipPath id="clip86">
  <path d="M 141.546875 214.292969 L 405.210938 214.292969 L 405.210938 478.050781 L 141.546875 478.050781 Z M 141.546875 214.292969 "/>
</clipPath>
<clipPath id="clip87">
  <path d="M 141.609375 221.859375 L 397.648438 478.070312 C 400.164062 477.835938 402.664062 477.554688 405.179688 477.242188 L 142.433594 214.324219 C 142.113281 216.824219 141.839844 219.34375 141.605469 221.859375 Z M 141.609375 221.859375 "/>
</clipPath>
<clipPath id="clip88">
  <path d="M 141.609375 221.859375 L 397.648438 478.070312 C 400.164062 477.835938 402.664062 477.554688 405.179688 477.242188 L 142.433594 214.324219 C 142.113281 216.824219 141.839844 219.34375 141.605469 221.859375 "/>
</clipPath>
<clipPath id="clip89">
  <path d="M 174.816406 366.21875 L 253.386719 366.21875 L 253.386719 444.839844 L 174.816406 444.839844 Z M 174.816406 366.21875 "/>
</clipPath>
<clipPath id="clip90">
  <path d="M 197.179688 396.902344 L 222.726562 422.457031 C 232.460938 430.820312 242.71875 438.261719 253.382812 444.777344 L 174.878906 366.21875 C 181.386719 376.894531 188.820312 387.148438 197.179688 396.902344 Z M 197.179688 396.902344 "/>
</clipPath>
<clipPath id="clip91">
  <path d="M 197.179688 396.902344 L 222.726562 422.457031 C 232.460938 430.820312 242.71875 438.261719 253.382812 444.777344 L 174.878906 366.21875 C 181.386719 376.894531 188.820312 387.148438 197.179688 396.902344 "/>
</clipPath>
<clipPath id="clip92">
  <path d="M 155.761719 327.144531 L 292.4375 327.144531 L 292.4375 463.910156 L 155.761719 463.910156 Z M 155.761719 327.144531 "/>
</clipPath>
<clipPath id="clip93">
  <path d="M 161.816406 341.601562 L 277.980469 457.84375 C 282.710938 460.003906 287.492188 462.003906 292.324219 463.832031 L 155.828125 327.253906 C 157.65625 332.082031 159.65625 336.867188 161.816406 341.601562 Z M 161.816406 341.601562 "/>
</clipPath>
<clipPath id="clip94">
  <path d="M 161.816406 341.601562 L 277.980469 457.84375 C 282.710938 460.003906 287.492188 462.003906 292.324219 463.832031 L 155.828125 327.253906 C 157.65625 332.082031 159.65625 336.867188 161.816406 341.601562 "/>
</clipPath>
<clipPath id="clip95">
  <path d="M 147.015625 298.382812 L 321.019531 298.382812 L 321.019531 472.664062 L 147.015625 472.664062 Z M 147.015625 298.382812 "/>
</clipPath>
<clipPath id="clip96">
  <path d="M 150.027344 309.902344 L 309.664062 469.644531 C 313.429688 470.738281 317.207031 471.742188 321.019531 472.648438 L 147.011719 298.523438 C 147.925781 302.339844 148.929688 306.136719 150.027344 309.902344 Z M 150.027344 309.902344 "/>
</clipPath>
<clipPath id="clip97">
  <path d="M 150.027344 309.902344 L 309.664062 469.644531 C 313.429688 470.738281 317.207031 471.742188 321.019531 472.648438 L 147.011719 298.523438 C 147.925781 302.339844 148.929688 306.136719 150.027344 309.902344 "/>
</clipPath>
<clipPath id="clip98">
  <path d="M 212.617188 70.027344 L 549.382812 70.027344 L 549.382812 407 L 212.617188 407 Z M 212.617188 70.027344 "/>
</clipPath>
<clipPath id="clip99">
  <path d="M 549.242188 402.65625 L 216.976562 70.167969 C 215.53125 71.5 214.09375 72.847656 212.671875 74.222656 L 545.1875 406.960938 C 546.5625 405.535156 547.90625 404.097656 549.25 402.660156 Z M 549.242188 402.65625 "/>
</clipPath>
<clipPath id="clip100">
  <path d="M 549.242188 402.65625 L 216.976562 70.167969 C 215.53125 71.5 214.09375 72.847656 212.671875 74.222656 L 545.1875 406.960938 C 546.5625 405.535156 547.90625 404.097656 549.25 402.660156 "/>
</clipPath>
<clipPath id="clip101">
  <path d="M 143.890625 197.101562 L 422.394531 197.101562 L 422.394531 475.789062 L 143.890625 475.789062 Z M 143.890625 197.101562 "/>
</clipPath>
<clipPath id="clip102">
  <path d="M 143.910156 204.257812 L 415.242188 475.773438 C 417.585938 475.367188 419.945312 474.929688 422.285156 474.460938 L 145.21875 197.210938 C 144.75 199.554688 144.308594 201.898438 143.910156 204.257812 Z M 143.910156 204.257812 "/>
</clipPath>
<clipPath id="clip103">
  <path d="M 143.910156 204.257812 L 415.242188 475.773438 C 417.585938 475.367188 419.945312 474.929688 422.285156 474.460938 L 145.21875 197.210938 C 144.75 199.554688 144.308594 201.898438 143.910156 204.257812 "/>
</clipPath>
<clipPath id="clip104">
  <path d="M 223.082031 60.804688 L 558.601562 60.804688 L 558.601562 396.542969 L 223.082031 396.542969 Z M 223.082031 60.804688 "/>
</clipPath>
<clipPath id="clip105">
  <path d="M 558.460938 391.964844 L 227.660156 60.945312 C 226.121094 62.191406 224.601562 63.457031 223.097656 64.746094 L 554.660156 396.53125 C 555.941406 395.015625 557.207031 393.5 558.457031 391.964844 Z M 558.460938 391.964844 "/>
</clipPath>
<clipPath id="clip106">
  <path d="M 558.460938 391.964844 L 227.660156 60.945312 C 226.121094 62.191406 224.601562 63.457031 223.097656 64.746094 L 554.660156 396.53125 C 555.941406 395.015625 557.207031 393.5 558.457031 391.964844 "/>
</clipPath>
<clipPath id="clip107">
  <path d="M 140.609375 232.582031 L 386.9375 232.582031 L 386.9375 478.050781 L 140.609375 478.050781 Z M 140.609375 232.582031 "/>
</clipPath>
<clipPath id="clip108">
  <path d="M 140.609375 240.769531 L 378.75 479.070312 C 381.453125 479.039062 384.15625 478.945312 386.875 478.820312 L 140.84375 232.644531 C 140.722656 235.347656 140.644531 238.050781 140.609375 240.769531 Z M 140.609375 240.769531 "/>
</clipPath>
<clipPath id="clip109">
  <path d="M 140.609375 240.769531 L 378.75 479.070312 C 381.453125 479.039062 384.15625 478.945312 386.875 478.820312 L 140.84375 232.644531 C 140.722656 235.347656 140.644531 238.050781 140.609375 240.769531 "/>
</clipPath>
<clipPath id="clip110">
  <path d="M 142.484375 274.15625 L 345.386719 274.15625 L 345.386719 477.195312 L 142.484375 477.195312 Z M 142.484375 274.15625 "/>
</clipPath>
<clipPath id="clip111">
  <path d="M 144.039062 284.003906 L 335.554688 475.632812 C 338.820312 476.195312 342.097656 476.695312 345.394531 477.117188 L 142.554688 274.15625 C 142.984375 277.441406 143.480469 280.738281 144.046875 284.003906 Z M 144.039062 284.003906 "/>
</clipPath>
<clipPath id="clip112">
  <path d="M 144.039062 284.003906 L 335.554688 475.632812 C 338.820312 476.195312 342.097656 476.695312 345.394531 477.117188 L 142.554688 274.15625 C 142.984375 277.441406 143.480469 280.738281 144.046875 284.003906 "/>
</clipPath>
<clipPath id="clip113">
  <path d="M 140.609375 252.429688 L 367.097656 252.429688 L 367.097656 478.050781 L 140.609375 478.050781 Z M 140.609375 252.429688 "/>
</clipPath>
<clipPath id="clip114">
  <path d="M 141.242188 261.308594 L 358.21875 478.429688 C 361.171875 478.648438 364.125 478.820312 367.078125 478.929688 L 140.742188 252.445312 C 140.851562 255.402344 141.015625 258.355469 141.234375 261.308594 Z M 141.242188 261.308594 "/>
</clipPath>
<clipPath id="clip115">
  <path d="M 141.242188 261.308594 L 358.21875 478.429688 C 361.171875 478.648438 364.125 478.820312 367.078125 478.929688 L 140.742188 252.445312 C 140.851562 255.402344 141.015625 258.355469 141.234375 261.308594 "/>
</clipPath>
<clipPath id="clip116">
  <path d="M 547 198 L 657.835938 198 L 657.835938 309 L 547 309 Z M 547 198 "/>
</clipPath>
<clipPath id="clip117">
  <path d="M 567 218 L 657.835938 218 L 657.835938 310 L 567 310 Z M 567 218 "/>
</clipPath>
<clipPath id="clip1">
  <rect x="0" y="0" width="727" height="487"/>
</clipPath>
<g id="surface5" clip-path="url(#clip1)">
<g clip-path="url(#clip2)" clip-rule="nonzero">
<g clip-path="url(#clip3)" clip-rule="nonzero">
<g clip-path="url(#clip4)" clip-rule="nonzero">
<path style=" stroke:none;fill-rule:nonzero;fill:rgb(33.329773%,33.329773%,33.329773%);fill-opacity:1;" d="M 387.609375 -58.539062 L 241.519531 87.644531 L 387.609375 233.816406 L 533.6875 87.644531 Z M 387.609375 -58.539062 "/>
</g>
</g>
</g>
<g clip-path="url(#clip5)" clip-rule="nonzero">
<g clip-path="url(#clip6)" clip-rule="nonzero">
<g clip-path="url(#clip7)" clip-rule="nonzero">
<path style=" stroke:none;fill-rule:nonzero;fill:rgb(33.329773%,33.329773%,33.329773%);fill-opacity:1;" d="M 399.777344 -57.910156 L 262.085938 79.875 L 399.777344 217.667969 L 537.480469 79.875 Z M 399.777344 -57.910156 "/>
</g>
</g>
</g>
<g clip-path="url(#clip8)" clip-rule="nonzero">
<g clip-path="url(#clip9)" clip-rule="nonzero">
<g clip-path="url(#clip10)" clip-rule="nonzero">
<path style=" stroke:none;fill-rule:nonzero;fill:rgb(33.329773%,33.329773%,33.329773%);fill-opacity:1;" d="M 413.054688 -56.234375 L 283.648438 73.265625 L 413.054688 202.757812 L 542.464844 73.265625 Z M 413.054688 -56.234375 "/>
</g>
</g>
</g>
<g clip-path="url(#clip11)" clip-rule="nonzero">
<g clip-path="url(#clip12)" clip-rule="nonzero">
<g clip-path="url(#clip13)" clip-rule="nonzero">
<path style=" stroke:none;fill-rule:nonzero;fill:rgb(33.329773%,33.329773%,33.329773%);fill-opacity:1;" d="M 376.519531 -58.363281 L 221.707031 96.542969 L 376.519531 251.445312 L 531.3125 96.542969 Z M 376.519531 -58.363281 "/>
</g>
</g>
</g>
<g clip-path="url(#clip14)" clip-rule="nonzero">
<g clip-path="url(#clip15)" clip-rule="nonzero">
<g clip-path="url(#clip16)" clip-rule="nonzero">
<path style=" stroke:none;fill-rule:nonzero;fill:rgb(33.329773%,33.329773%,33.329773%);fill-opacity:1;" d="M 350.402344 -55.46875 L 164.132812 130.921875 L 350.402344 317.332031 L 536.683594 130.921875 Z M 350.402344 -55.46875 "/>
</g>
</g>
</g>
<g clip-path="url(#clip17)" clip-rule="nonzero">
<g clip-path="url(#clip18)" clip-rule="nonzero">
<g clip-path="url(#clip19)" clip-rule="nonzero">
<path style=" stroke:none;fill-rule:nonzero;fill:rgb(33.329773%,33.329773%,33.329773%);fill-opacity:1;" d="M 345.855469 -55.847656 L 144 146.144531 L 345.855469 348.132812 L 547.710938 146.144531 Z M 345.855469 -55.847656 "/>
</g>
</g>
</g>
<g clip-path="url(#clip20)" clip-rule="nonzero">
<g clip-path="url(#clip21)" clip-rule="nonzero">
<g clip-path="url(#clip22)" clip-rule="nonzero">
<path style=" stroke:none;fill-rule:nonzero;fill:rgb(33.329773%,33.329773%,33.329773%);fill-opacity:1;" d="M 357.742188 -56.539062 L 183.347656 117.988281 L 357.742188 292.5 L 532.15625 117.972656 Z M 357.742188 -56.539062 "/>
</g>
</g>
</g>
<g clip-path="url(#clip23)" clip-rule="nonzero">
<g clip-path="url(#clip24)" clip-rule="nonzero">
<g clip-path="url(#clip25)" clip-rule="nonzero">
<path style=" stroke:none;fill-rule:nonzero;fill:rgb(33.329773%,33.329773%,33.329773%);fill-opacity:1;" d="M 427.515625 -53.175781 L 306.539062 67.882812 L 427.515625 188.941406 L 548.492188 67.882812 Z M 427.515625 -53.175781 "/>
</g>
</g>
</g>
<g clip-path="url(#clip26)" clip-rule="nonzero">
<g clip-path="url(#clip27)" clip-rule="nonzero">
<g clip-path="url(#clip28)" clip-rule="nonzero">
<path style=" stroke:none;fill-rule:nonzero;fill:rgb(33.329773%,33.329773%,33.329773%);fill-opacity:1;" d="M 366.519531 -57.625 L 202.402344 106.621094 L 366.519531 270.847656 L 530.65625 106.621094 Z M 366.519531 -57.625 "/>
</g>
</g>
</g>
<g clip-path="url(#clip29)" clip-rule="nonzero">
<g clip-path="url(#clip30)" clip-rule="nonzero">
<g clip-path="url(#clip31)" clip-rule="nonzero">
<path style=" stroke:none;fill-rule:nonzero;fill:rgb(33.329773%,33.329773%,33.329773%);fill-opacity:1;" d="M 535.605469 294.585938 L 474.441406 355.777344 L 535.605469 416.988281 L 596.757812 355.777344 Z M 535.605469 294.585938 "/>
</g>
</g>
</g>
<g clip-path="url(#clip32)" clip-rule="nonzero">
<g clip-path="url(#clip33)" clip-rule="nonzero">
<g clip-path="url(#clip34)" clip-rule="nonzero">
<path style=" stroke:none;fill-rule:nonzero;fill:rgb(33.329773%,33.329773%,33.329773%);fill-opacity:1;" d="M 346.558594 -60.195312 L 119.898438 166.613281 L 346.558594 393.425781 L 573.21875 166.613281 Z M 346.558594 -60.195312 "/>
</g>
</g>
</g>
<g clip-path="url(#clip35)" clip-rule="nonzero">
<g clip-path="url(#clip36)" clip-rule="nonzero">
<g clip-path="url(#clip37)" clip-rule="nonzero">
<path style=" stroke:none;fill-rule:nonzero;fill:rgb(33.329773%,33.329773%,33.329773%);fill-opacity:1;" d="M 556.070312 320.09375 L 519.707031 356.484375 L 556.070312 392.871094 L 592.417969 356.484375 Z M 556.070312 320.09375 "/>
</g>
</g>
</g>
<g clip-path="url(#clip38)" clip-rule="nonzero">
<g clip-path="url(#clip39)" clip-rule="nonzero">
<g clip-path="url(#clip40)" clip-rule="nonzero">
<path style=" stroke:none;fill-rule:nonzero;fill:rgb(33.329773%,33.329773%,33.329773%);fill-opacity:1;" d="M 443.308594 -48.851562 L 330.90625 63.625 L 443.308594 176.109375 L 555.710938 63.625 Z M 443.308594 -48.851562 "/>
</g>
</g>
</g>
<g clip-path="url(#clip41)" clip-rule="nonzero">
<g clip-path="url(#clip42)" clip-rule="nonzero">
<g clip-path="url(#clip43)" clip-rule="nonzero">
<path style=" stroke:none;fill-rule:nonzero;fill:rgb(33.329773%,33.329773%,33.329773%);fill-opacity:1;" d="M 571.265625 331.144531 L 550.492188 351.933594 L 571.265625 372.722656 L 592.042969 351.933594 Z M 571.265625 331.144531 "/>
</g>
</g>
</g>
<g clip-path="url(#clip44)" clip-rule="nonzero">
<g clip-path="url(#clip45)" clip-rule="nonzero">
<g clip-path="url(#clip46)" clip-rule="nonzero">
<path style=" stroke:none;fill-rule:nonzero;fill:rgb(33.329773%,33.329773%,33.329773%);fill-opacity:1;" d="M 530.6875 15.945312 L 475.453125 71.207031 L 530.6875 126.46875 L 585.902344 71.207031 Z M 530.6875 15.945312 "/>
</g>
</g>
</g>
<g clip-path="url(#clip47)" clip-rule="nonzero">
<g clip-path="url(#clip48)" clip-rule="nonzero">
<g clip-path="url(#clip49)" clip-rule="nonzero">
<path style=" stroke:none;fill-rule:nonzero;fill:rgb(33.329773%,33.329773%,33.329773%);fill-opacity:1;" d="M 460.679688 -42.4375 L 357.476562 60.84375 L 460.679688 164.125 L 563.894531 60.84375 Z M 460.679688 -42.4375 "/>
</g>
</g>
</g>
<g clip-path="url(#clip50)" clip-rule="nonzero">
<g clip-path="url(#clip51)" clip-rule="nonzero">
<g clip-path="url(#clip52)" clip-rule="nonzero">
<path style=" stroke:none;fill-rule:nonzero;fill:rgb(33.329773%,33.329773%,33.329773%);fill-opacity:1;" d="M 502.664062 -16.808594 L 423.535156 62.378906 L 502.664062 141.566406 L 581.796875 62.378906 Z M 502.664062 -16.808594 "/>
</g>
</g>
</g>
<g clip-path="url(#clip53)" clip-rule="nonzero">
<g clip-path="url(#clip54)" clip-rule="nonzero">
<g clip-path="url(#clip55)" clip-rule="nonzero">
<path style=" stroke:none;fill-rule:nonzero;fill:rgb(33.329773%,33.329773%,33.329773%);fill-opacity:1;" d="M 480.140625 -32.617188 L 387.484375 60.09375 L 480.140625 152.804688 L 572.78125 60.09375 Z M 480.140625 -32.617188 "/>
</g>
</g>
</g>
<g clip-path="url(#clip56)" clip-rule="nonzero">
<g clip-path="url(#clip57)" clip-rule="nonzero">
<g clip-path="url(#clip58)" clip-rule="nonzero">
<path style=" stroke:none;fill-rule:nonzero;fill:rgb(33.329773%,33.329773%,33.329773%);fill-opacity:1;" d="M 584.199219 335.679688 L 575.296875 344.585938 L 584.199219 353.496094 L 593.105469 344.585938 Z M 584.199219 335.679688 "/>
</g>
</g>
</g>
<g clip-path="url(#clip59)" clip-rule="nonzero">
<g clip-path="url(#clip60)" clip-rule="nonzero">
<g clip-path="url(#clip61)" clip-rule="nonzero">
<path style=" stroke:none;fill-rule:nonzero;fill:rgb(33.329773%,33.329773%,33.329773%);fill-opacity:1;" d="M 312.367188 -3.996094 L 1.40625 307.1875 L 312.367188 618.371094 L 623.34375 307.1875 Z M 312.367188 -3.996094 "/>
</g>
</g>
</g>
<g clip-path="url(#clip62)" clip-rule="nonzero">
<g clip-path="url(#clip63)" clip-rule="nonzero">
<g clip-path="url(#clip64)" clip-rule="nonzero">
<path style=" stroke:none;fill-rule:nonzero;fill:rgb(33.329773%,33.329773%,33.329773%);fill-opacity:1;" d="M 322.160156 -21.398438 L 3.589844 297.382812 L 322.160156 616.179688 L 640.746094 297.382812 Z M 322.160156 -21.398438 "/>
</g>
</g>
</g>
<g clip-path="url(#clip65)" clip-rule="nonzero">
<g clip-path="url(#clip66)" clip-rule="nonzero">
<g clip-path="url(#clip67)" clip-rule="nonzero">
<path style=" stroke:none;fill-rule:nonzero;fill:rgb(33.329773%,33.329773%,33.329773%);fill-opacity:1;" d="M 302.605469 14.921875 L 0.75 316.960938 L 302.605469 619.015625 L 604.445312 316.960938 Z M 302.605469 14.921875 "/>
</g>
</g>
</g>
<g clip-path="url(#clip68)" clip-rule="nonzero">
<g clip-path="url(#clip69)" clip-rule="nonzero">
<g clip-path="url(#clip70)" clip-rule="nonzero">
<path style=" stroke:none;fill-rule:nonzero;fill:rgb(33.329773%,33.329773%,33.329773%);fill-opacity:1;" d="M 331.96875 -37.386719 L 7.214844 287.585938 L 331.96875 612.554688 L 656.722656 287.585938 Z M 331.96875 -37.386719 "/>
</g>
</g>
</g>
<g clip-path="url(#clip71)" clip-rule="nonzero">
<g clip-path="url(#clip72)" clip-rule="nonzero">
<g clip-path="url(#clip73)" clip-rule="nonzero">
<path style=" stroke:none;fill-rule:nonzero;fill:rgb(33.329773%,33.329773%,33.329773%);fill-opacity:1;" d="M 341.777344 -52.039062 L 12.183594 277.761719 L 341.777344 607.574219 L 671.359375 277.777344 Z M 341.777344 -52.039062 "/>
</g>
</g>
</g>
<g clip-path="url(#clip74)" clip-rule="nonzero">
<g clip-path="url(#clip75)" clip-rule="nonzero">
<g clip-path="url(#clip76)" clip-rule="nonzero">
<path style=" stroke:none;fill-rule:nonzero;fill:rgb(33.329773%,33.329773%,33.329773%);fill-opacity:1;" d="M 371.128906 -88.433594 L 34.535156 248.402344 L 371.128906 585.21875 L 707.722656 248.402344 Z M 371.128906 -88.433594 "/>
</g>
</g>
</g>
<g clip-path="url(#clip77)" clip-rule="nonzero">
<g clip-path="url(#clip78)" clip-rule="nonzero">
<g clip-path="url(#clip79)" clip-rule="nonzero">
<path style=" stroke:none;fill-rule:nonzero;fill:rgb(33.329773%,33.329773%,33.329773%);fill-opacity:1;" d="M 361.414062 -77.578125 L 25.929688 258.113281 L 361.414062 593.824219 L 696.882812 258.113281 Z M 361.414062 -77.578125 "/>
</g>
</g>
</g>
<g clip-path="url(#clip80)" clip-rule="nonzero">
<g clip-path="url(#clip81)" clip-rule="nonzero">
<g clip-path="url(#clip82)" clip-rule="nonzero">
<path style=" stroke:none;fill-rule:nonzero;fill:rgb(33.329773%,33.329773%,33.329773%);fill-opacity:1;" d="M 292.835938 35.5 L 1.789062 326.742188 L 292.835938 617.980469 L 583.863281 326.742188 Z M 292.835938 35.5 "/>
</g>
</g>
</g>
<g clip-path="url(#clip83)" clip-rule="nonzero">
<g clip-path="url(#clip84)" clip-rule="nonzero">
<g clip-path="url(#clip85)" clip-rule="nonzero">
<path style=" stroke:none;fill-rule:nonzero;fill:rgb(33.329773%,33.329773%,33.329773%);fill-opacity:1;" d="M 351.589844 -65.421875 L 18.445312 267.957031 L 351.589844 601.320312 L 684.730469 267.957031 Z M 351.589844 -65.421875 "/>
</g>
</g>
</g>
<g clip-path="url(#clip86)" clip-rule="nonzero">
<g clip-path="url(#clip87)" clip-rule="nonzero">
<g clip-path="url(#clip88)" clip-rule="nonzero">
<path style=" stroke:none;fill-rule:nonzero;fill:rgb(33.329773%,33.329773%,33.329773%);fill-opacity:1;" d="M 273.394531 82.449219 L 9.824219 346.195312 L 273.394531 609.941406 L 536.964844 346.195312 Z M 273.394531 82.449219 "/>
</g>
</g>
</g>
<g clip-path="url(#clip89)" clip-rule="nonzero">
<g clip-path="url(#clip90)" clip-rule="nonzero">
<g clip-path="url(#clip91)" clip-rule="nonzero">
<path style=" stroke:none;fill-rule:nonzero;fill:rgb(33.329773%,33.329773%,33.329773%);fill-opacity:1;" d="M 214.132812 326.941406 L 135.628906 405.5 L 214.132812 484.042969 L 292.632812 405.5 Z M 214.132812 326.941406 "/>
</g>
</g>
</g>
<g clip-path="url(#clip92)" clip-rule="nonzero">
<g clip-path="url(#clip93)" clip-rule="nonzero">
<g clip-path="url(#clip94)" clip-rule="nonzero">
<path style=" stroke:none;fill-rule:nonzero;fill:rgb(33.329773%,33.329773%,33.329773%);fill-opacity:1;" d="M 224.078125 258.964844 L 87.582031 395.542969 L 224.078125 532.136719 L 360.570312 395.542969 Z M 224.078125 258.964844 "/>
</g>
</g>
</g>
<g clip-path="url(#clip95)" clip-rule="nonzero">
<g clip-path="url(#clip96)" clip-rule="nonzero">
<g clip-path="url(#clip97)" clip-rule="nonzero">
<path style=" stroke:none;fill-rule:nonzero;fill:rgb(33.329773%,33.329773%,33.329773%);fill-opacity:1;" d="M 234.023438 211.464844 L 60.015625 385.585938 L 234.023438 559.707031 L 408.027344 385.585938 Z M 234.023438 211.464844 "/>
</g>
</g>
</g>
<g clip-path="url(#clip98)" clip-rule="nonzero">
<g clip-path="url(#clip99)" clip-rule="nonzero">
<g clip-path="url(#clip100)" clip-rule="nonzero">
<path style=" stroke:none;fill-rule:nonzero;fill:rgb(33.329773%,33.329773%,33.329773%);fill-opacity:1;" d="M 380.953125 -98.226562 L 44.390625 238.5625 L 380.953125 575.347656 L 717.515625 238.5625 Z M 380.953125 -98.226562 "/>
</g>
</g>
</g>
<g clip-path="url(#clip101)" clip-rule="nonzero">
<g clip-path="url(#clip102)" clip-rule="nonzero">
<g clip-path="url(#clip103)" clip-rule="nonzero">
<path style=" stroke:none;fill-rule:nonzero;fill:rgb(33.329773%,33.329773%,33.329773%);fill-opacity:1;" d="M 283.097656 57.925781 L 4.71875 336.488281 L 283.097656 615.035156 L 561.476562 336.488281 Z M 283.097656 57.925781 "/>
</g>
</g>
</g>
<g clip-path="url(#clip104)" clip-rule="nonzero">
<g clip-path="url(#clip105)" clip-rule="nonzero">
<g clip-path="url(#clip106)" clip-rule="nonzero">
<path style=" stroke:none;fill-rule:nonzero;fill:rgb(33.329773%,33.329773%,33.329773%);fill-opacity:1;" d="M 390.777344 -106.84375 L 55.417969 228.738281 L 390.777344 564.320312 L 726.140625 228.738281 Z M 390.777344 -106.84375 "/>
</g>
</g>
</g>
<g clip-path="url(#clip107)" clip-rule="nonzero">
<g clip-path="url(#clip108)" clip-rule="nonzero">
<g clip-path="url(#clip109)" clip-rule="nonzero">
<path style=" stroke:none;fill-rule:nonzero;fill:rgb(33.329773%,33.329773%,33.329773%);fill-opacity:1;" d="M 263.738281 109.4375 L 17.476562 355.863281 L 263.738281 602.273438 L 509.988281 355.863281 Z M 263.738281 109.4375 "/>
</g>
</g>
</g>
<g clip-path="url(#clip110)" clip-rule="nonzero">
<g clip-path="url(#clip111)" clip-rule="nonzero">
<g clip-path="url(#clip112)" clip-rule="nonzero">
<path style=" stroke:none;fill-rule:nonzero;fill:rgb(33.329773%,33.329773%,33.329773%);fill-opacity:1;" d="M 243.96875 172.671875 L 41.125 375.644531 L 243.96875 578.605469 L 446.808594 375.644531 Z M 243.96875 172.671875 "/>
</g>
</g>
</g>
<g clip-path="url(#clip113)" clip-rule="nonzero">
<g clip-path="url(#clip114)" clip-rule="nonzero">
<g clip-path="url(#clip115)" clip-rule="nonzero">
<path style=" stroke:none;fill-rule:nonzero;fill:rgb(33.329773%,33.329773%,33.329773%);fill-opacity:1;" d="M 253.914062 139.210938 L 27.582031 365.695312 L 253.914062 592.164062 L 480.230469 365.695312 Z M 253.914062 139.210938 "/>
</g>
</g>
</g>
<path style=" stroke:none;fill-rule:nonzero;fill:rgb(33.329773%,33.329773%,33.329773%);fill-opacity:1;" d="M 560.503906 288.054688 L 562.050781 286.519531 L 635.277344 213.230469 L 639.464844 209.042969 L 654.632812 193.878906 C 654.507812 193.425781 654.382812 192.988281 654.257812 192.535156 C 654.195312 192.347656 654.132812 192.160156 654.085938 191.957031 C 653.804688 191.050781 653.523438 190.128906 653.226562 189.222656 C 653.054688 188.722656 652.882812 188.207031 652.710938 187.691406 C 651.992188 185.660156 651.210938 183.625 650.335938 181.640625 L 632.839844 199.132812 L 539.214844 292.835938 L 530.46875 301.589844 C 532.171875 302.324219 533.90625 303.011719 535.636719 303.636719 C 536.308594 303.886719 536.980469 304.121094 537.667969 304.339844 C 537.964844 304.449219 538.261719 304.542969 538.542969 304.636719 C 539.261719 304.871094 539.964844 305.089844 540.683594 305.292969 C 541.355469 305.496094 542.027344 305.699219 542.699219 305.871094 L 560.503906 288.054688 "/>
<g clip-path="url(#clip116)" clip-rule="nonzero">
<path style=" stroke:none;fill-rule:nonzero;fill:rgb(33.329773%,33.329773%,33.329773%);fill-opacity:1;" d="M 632.417969 238.128906 L 657.691406 212.855469 C 657.628906 211.621094 657.535156 210.402344 657.410156 209.183594 C 657.363281 208.574219 657.285156 207.980469 657.222656 207.371094 C 657.082031 206.148438 656.925781 204.929688 656.722656 203.726562 C 656.628906 203.117188 656.535156 202.507812 656.425781 201.914062 C 656.207031 200.710938 655.972656 199.492188 655.710938 198.304688 L 644.523438 209.496094 L 635.433594 218.59375 L 567.394531 286.675781 L 547.117188 306.964844 C 549.523438 307.496094 551.929688 307.917969 554.351562 308.246094 C 554.960938 308.324219 555.570312 308.402344 556.179688 308.480469 C 558.007812 308.683594 559.832031 308.839844 561.660156 308.949219 L 567.972656 302.621094 L 632.417969 238.128906 "/>
</g>
<path style=" stroke:none;fill-rule:nonzero;fill:rgb(33.329773%,33.329773%,33.329773%);fill-opacity:1;" d="M 654.023438 244.070312 L 592.855469 305.277344 C 597.664062 303.839844 602.382812 301.980469 606.945312 299.746094 C 607.753906 299.339844 608.566406 298.933594 609.378906 298.492188 C 610.628906 297.835938 611.878906 297.148438 613.113281 296.414062 C 617.128906 294.023438 621.015625 291.304688 624.703125 288.257812 C 626.1875 287.035156 627.640625 285.753906 629.0625 284.425781 C 629.765625 283.753906 630.46875 283.082031 631.15625 282.378906 C 635.996094 277.535156 640.183594 272.28125 643.695312 266.734375 C 644.414062 265.59375 645.101562 264.453125 645.757812 263.292969 C 649.289062 257.152344 652.054688 250.710938 654.023438 244.070312 "/>
<g clip-path="url(#clip117)" clip-rule="nonzero">
<path style=" stroke:none;fill-rule:nonzero;fill:rgb(33.329773%,33.329773%,33.329773%);fill-opacity:1;" d="M 657.832031 218.214844 L 628.953125 247.117188 L 567.035156 309.089844 C 573.21875 309.058594 579.40625 308.417969 585.480469 307.136719 L 655.898438 236.691406 C 656.207031 235.175781 656.488281 233.644531 656.722656 232.113281 C 657.441406 227.515625 657.816406 222.859375 657.832031 218.214844 "/>
</g>
<path style=" stroke:none;fill-rule:nonzero;fill:rgb(33.329773%,33.329773%,33.329773%);fill-opacity:1;" d="M 487.761719 206.570312 L 503.601562 190.722656 L 539.542969 154.75 L 552.382812 141.90625 L 567.519531 126.757812 C 564.863281 126.734375 562.191406 126.832031 559.535156 127.039062 C 558.398438 127.128906 557.273438 127.230469 556.132812 127.363281 C 553.867188 127.625 551.601562 127.976562 549.351562 128.410156 L 477.28125 200.523438 C 477 201.929688 476.765625 203.335938 476.5625 204.742188 C 476.109375 207.871094 475.828125 210.996094 475.6875 214.152344 C 475.671875 214.902344 475.640625 215.667969 475.625 216.433594 C 475.625 217.183594 475.609375 217.949219 475.625 218.71875 L 487.761719 206.570312 "/>
<path style=" stroke:none;fill-rule:nonzero;fill:rgb(33.329773%,33.329773%,33.329773%);fill-opacity:1;" d="M 638.199219 161.371094 C 637.433594 160.402344 636.636719 159.445312 635.824219 158.5 C 634.839844 157.355469 633.824219 156.226562 632.777344 155.125 L 616.941406 170.980469 L 519.816406 268.15625 L 503.976562 284.019531 C 504.695312 284.707031 505.414062 285.363281 506.148438 286.019531 C 508.351562 287.992188 510.632812 289.835938 512.972656 291.539062 L 640.308594 164.125 C 639.621094 163.199219 638.917969 162.28125 638.199219 161.371094 "/>
<path style=" stroke:none;fill-rule:nonzero;fill:rgb(33.329773%,33.329773%,33.329773%);fill-opacity:1;" d="M 594.683594 131.132812 C 593.667969 130.804688 592.636719 130.492188 591.605469 130.203125 L 498.246094 223.625 L 488.652344 233.222656 L 479.0625 242.820312 C 479.65625 244.882812 480.3125 246.929688 481.03125 248.945312 C 481.59375 250.476562 482.171875 251.976562 482.8125 253.480469 C 483.015625 253.964844 483.234375 254.464844 483.453125 254.964844 L 603.742188 134.589844 C 600.773438 133.269531 597.757812 132.117188 594.683594 131.132812 "/>
<path style=" stroke:none;fill-rule:nonzero;fill:rgb(33.329773%,33.329773%,33.329773%);fill-opacity:1;" d="M 614.207031 168.199219 L 618.519531 163.890625 L 630.046875 152.363281 C 629.703125 152.039062 629.359375 151.734375 629.03125 151.417969 C 626.484375 149.027344 623.84375 146.804688 621.109375 144.761719 L 609.066406 156.816406 L 605.054688 160.835938 L 509.679688 256.261719 L 501.648438 264.296875 L 493.621094 272.34375 C 494.777344 273.890625 495.980469 275.40625 497.246094 276.894531 C 497.886719 277.644531 498.527344 278.378906 499.179688 279.113281 C 499.851562 279.832031 500.523438 280.550781 501.210938 281.269531 L 614.207031 168.199219 "/>
<path style=" stroke:none;fill-rule:nonzero;fill:rgb(33.329773%,33.329773%,33.329773%);fill-opacity:1;" d="M 631.515625 194.957031 L 644.320312 182.140625 L 648.601562 177.859375 C 647.945312 176.515625 647.242188 175.1875 646.507812 173.859375 C 645.789062 172.53125 645.023438 171.230469 644.210938 169.933594 C 643.683594 169.074219 643.136719 168.214844 642.574219 167.371094 L 626.3125 183.640625 L 516.207031 293.804688 C 519.597656 296.070312 523.109375 298.085938 526.703125 299.839844 L 631.515625 194.957031 "/>
<path style=" stroke:none;fill-rule:nonzero;fill:rgb(33.329773%,33.329773%,33.329773%);fill-opacity:1;" d="M 481.3125 186.175781 C 480.4375 188.535156 479.65625 190.910156 478.984375 193.316406 L 542.136719 130.121094 C 533.9375 132.414062 525.984375 135.875 518.550781 140.507812 C 516.082031 142.054688 513.660156 143.730469 511.316406 145.535156 C 508.179688 147.941406 505.164062 150.578125 502.304688 153.449219 C 494.199219 161.5625 487.949219 170.824219 483.53125 180.703125 C 482.984375 181.9375 482.46875 183.1875 481.96875 184.441406 C 481.75 185.019531 481.53125 185.597656 481.3125 186.175781 "/>
<path style=" stroke:none;fill-rule:nonzero;fill:rgb(33.329773%,33.329773%,33.329773%);fill-opacity:1;" d="M 498.011719 218.34375 L 577.1875 139.121094 L 587.230469 129.078125 C 585.449219 128.667969 583.652344 128.3125 581.859375 128.011719 C 579.46875 127.609375 577.0625 127.304688 574.640625 127.09375 C 574.03125 127.039062 573.4375 126.992188 572.828125 126.953125 L 475.828125 224.03125 C 475.90625 225.234375 476 226.4375 476.140625 227.65625 C 476.203125 228.25 476.265625 228.859375 476.34375 229.453125 C 476.5 230.660156 476.671875 231.863281 476.875 233.066406 C 477.1875 234.863281 477.53125 236.660156 477.9375 238.425781 L 498.011719 218.34375 "/>
<path style=" stroke:none;fill-rule:nonzero;fill:rgb(33.329773%,33.329773%,33.329773%);fill-opacity:1;" d="M 499.445312 260.996094 L 601.664062 158.703125 L 617.894531 142.472656 C 617.472656 142.183594 617.050781 141.902344 616.628906 141.625 C 616.207031 141.34375 615.785156 141.070312 615.347656 140.800781 C 614.253906 140.105469 613.144531 139.4375 612.019531 138.792969 C 610.519531 137.933594 609.019531 137.121094 607.488281 136.355469 L 598.351562 145.5 L 493.433594 250.476562 L 485.21875 258.699219 C 486.34375 260.933594 487.542969 263.136719 488.855469 265.296875 C 489.386719 266.15625 489.933594 267 490.480469 267.859375 L 491.324219 269.125 L 499.445312 260.996094 "/>
</g>
<mask id="mask1">
  <g filter="url(#alpha)">
<rect x="0" y="0" width="1012.5" height="487.499991" style="fill:rgb(0%,0%,0%);fill-opacity:0.2;stroke:none;"/>
  </g>
</mask>
<clipPath id="clip119">
  <path d="M 0.5 1.640625 L 97.949219 1.640625 L 97.949219 99.839844 L 0.5 99.839844 Z M 0.5 1.640625 "/>
</clipPath>
<clipPath id="clip118">
  <rect x="0" y="0" width="99" height="100"/>
</clipPath>
<g id="surface8" clip-path="url(#clip118)">
<g clip-path="url(#clip119)" clip-rule="nonzero">
<path style=" stroke:none;fill-rule:nonzero;fill:rgb(100%,100%,100%);fill-opacity:1;" d="M 97.714844 47.753906 C 97.367188 46.976562 97.722656 46.128906 97.421875 45.289062 C 96.800781 43.550781 97.46875 43.628906 95.03125 35.808594 C 94.988281 35.667969 94.84375 35.539062 94.835938 35.402344 C 94.8125 35.035156 94.667969 34.722656 94.507812 34.402344 C 94.371094 34.121094 94.335938 33.414062 94 33.039062 C 93.957031 32.992188 93.925781 32.9375 93.910156 32.878906 C 93.566406 31.460938 92.769531 31.34375 92.234375 30.171875 C 90.136719 25.566406 89.382812 25.589844 89.167969 24.699219 C 89.085938 24.363281 88.878906 24.09375 88.65625 23.867188 C 87.949219 23.160156 87.210938 20.742188 86.589844 20.292969 C 86.582031 20.285156 86.324219 19.621094 86.039062 19.464844 C 85.445312 19.128906 82.34375 15.335938 81.941406 14.984375 C 81.9375 14.980469 78.078125 11.851562 77.304688 11.542969 C 75.785156 10.9375 73.796875 9.261719 70.980469 7.902344 C 70.949219 7.882812 68.449219 6.054688 67.746094 5.941406 C 67.339844 5.871094 67.015625 5.699219 66.671875 5.507812 C 66.664062 5.503906 66.050781 5.332031 65.707031 5.1875 C 65.699219 5.183594 61.105469 2.90625 60.167969 2.972656 C 59.949219 2.988281 59.722656 2.890625 59.503906 2.835938 C 57.316406 2.25 58.140625 2.675781 52.835938 2.027344 C 50.117188 1.691406 47.425781 2.089844 46.625 1.859375 C 45.957031 1.671875 42.101562 2.621094 37.8125 3.429688 C 37.046875 3.578125 34.835938 4.585938 33.992188 4.480469 C 33.984375 4.480469 31.402344 5.199219 31.394531 5.203125 C 27.316406 6.652344 20.027344 12.132812 20.019531 12.136719 C 19.179688 12.546875 17.957031 14.105469 17.207031 14.65625 C 16.769531 14.976562 15.507812 15.996094 14.996094 16.621094 C 12.972656 19.121094 12.800781 18.339844 11.433594 20.570312 C 7.730469 26.625 10.472656 22.15625 7.867188 25.78125 C 5.03125 29.734375 5.515625 30.382812 3.789062 34.84375 C 2.484375 38.230469 3.265625 35.65625 2.605469 38.296875 C 2.605469 38.304688 2.042969 40.453125 1.980469 40.601562 C 1.328125 42.050781 1.328125 43.867188 1.324219 43.875 C 1.214844 44.472656 0.996094 45.0625 1.089844 45.691406 C 1.105469 45.804688 0.75 47.046875 0.785156 48.101562 C 1.078125 55.792969 0.632812 54.207031 1.140625 56.21875 C 4.125 68.0625 3.363281 65.554688 4.75 68.8125 C 5.542969 70.683594 5.378906 71.019531 6.011719 72.375 C 6.421875 73.25 13.058594 84.320312 15.492188 86.078125 C 15.691406 86.226562 15.792969 86.253906 16.09375 86.722656 C 16.558594 87.441406 16.605469 87.3125 18.082031 88.253906 C 19.078125 88.890625 18.851562 88.933594 19.027344 89.007812 C 20.519531 89.652344 31.804688 99.871094 49.796875 99.738281 C 49.851562 99.738281 49.902344 99.742188 49.957031 99.742188 C 54.496094 99.742188 58.878906 99.0625 63.03125 97.820312 C 63.050781 97.8125 63.074219 97.808594 63.097656 97.800781 C 63.65625 97.644531 64.230469 97.539062 64.792969 97.386719 C 65.46875 97.210938 66.554688 96.730469 67.847656 96.085938 C 70.917969 94.777344 73.820312 93.140625 76.515625 91.21875 C 78.09375 90.269531 79.378906 89.476562 80.007812 89.058594 C 82.363281 87.507812 85.722656 83.261719 87.585938 81.492188 C 88.839844 80.296875 93.1875 73.226562 94.148438 69.5 C 94.167969 69.425781 94.59375 68.574219 94.804688 68.023438 C 97.726562 60.296875 97.035156 56.570312 97.335938 55.75 C 97.589844 55.058594 97.597656 52.972656 97.660156 52.667969 C 97.890625 51.566406 97.464844 48.972656 97.734375 48.160156 C 97.773438 48.039062 97.765625 47.875 97.714844 47.753906 "/>
</g>
</g>
<mask id="mask2">
  <g filter="url(#alpha)">
<rect x="0" y="0" width="1012.5" height="487.499991" style="fill:rgb(0%,0%,0%);fill-opacity:0.2;stroke:none;"/>
  </g>
</mask>
<clipPath id="clip121">
  <path d="M 1.308594 2 L 98.757812 2 L 98.757812 100 L 1.308594 100 Z M 1.308594 2 "/>
</clipPath>
<clipPath id="clip120">
  <rect x="0" y="0" width="100" height="101"/>
</clipPath>
<g id="surface11" clip-path="url(#clip120)">
<g clip-path="url(#clip121)" clip-rule="nonzero">
<path style=" stroke:none;fill-rule:nonzero;fill:rgb(100%,100%,100%);fill-opacity:1;" d="M 98.527344 47.988281 C 98.175781 47.207031 98.535156 46.363281 98.230469 45.519531 C 97.609375 43.78125 98.277344 43.859375 95.839844 36.039062 C 95.796875 35.898438 95.65625 35.773438 95.648438 35.636719 C 95.621094 35.269531 95.476562 34.953125 95.316406 34.632812 C 95.179688 34.355469 95.144531 33.644531 94.808594 33.273438 C 94.765625 33.226562 94.734375 33.167969 94.71875 33.109375 C 94.375 31.691406 93.578125 31.578125 93.042969 30.402344 C 90.945312 25.796875 90.191406 25.820312 89.976562 24.929688 C 89.898438 24.59375 89.691406 24.328125 89.46875 24.101562 C 88.757812 23.394531 88.019531 20.976562 87.398438 20.523438 C 87.390625 20.515625 87.132812 19.851562 86.847656 19.695312 C 86.253906 19.363281 83.152344 15.570312 82.75 15.214844 C 82.746094 15.210938 78.886719 12.085938 78.113281 11.773438 C 76.59375 11.171875 74.605469 9.496094 71.792969 8.132812 C 71.757812 8.113281 69.257812 6.285156 68.554688 6.171875 C 68.148438 6.101562 67.824219 5.929688 67.480469 5.738281 C 67.476562 5.734375 66.863281 5.5625 66.515625 5.417969 C 66.507812 5.414062 61.917969 3.140625 60.976562 3.203125 C 60.757812 3.21875 60.53125 3.125 60.3125 3.066406 C 58.125 2.480469 58.949219 2.910156 53.644531 2.257812 C 50.925781 1.921875 48.234375 2.320312 47.433594 2.089844 C 46.765625 1.902344 42.910156 2.851562 38.621094 3.664062 C 37.855469 3.808594 35.644531 4.816406 34.800781 4.710938 C 34.792969 4.710938 32.210938 5.429688 32.203125 5.433594 C 28.125 6.882812 20.835938 12.363281 20.828125 12.367188 C 19.988281 12.78125 18.765625 14.335938 18.015625 14.886719 C 17.578125 15.210938 16.316406 16.226562 15.808594 16.851562 C 13.78125 19.355469 13.609375 18.570312 12.242188 20.804688 C 8.539062 26.859375 11.285156 22.386719 8.675781 26.011719 C 5.839844 29.96875 6.324219 30.613281 4.597656 35.078125 C 3.292969 38.460938 4.078125 35.886719 3.414062 38.53125 C 3.414062 38.539062 2.855469 40.6875 2.789062 40.832031 C 2.136719 42.28125 2.136719 44.097656 2.132812 44.105469 C 2.027344 44.707031 1.808594 45.296875 1.898438 45.921875 C 1.914062 46.039062 1.558594 47.28125 1.597656 48.332031 C 1.886719 56.027344 1.441406 54.441406 1.949219 56.449219 C 4.933594 68.296875 4.171875 65.785156 5.558594 69.042969 C 6.355469 70.914062 6.1875 71.25 6.820312 72.605469 C 7.230469 73.480469 13.867188 84.550781 16.300781 86.3125 C 16.5 86.457031 16.601562 86.488281 16.902344 86.953125 C 17.367188 87.671875 17.414062 87.542969 18.894531 88.488281 C 19.886719 89.121094 19.660156 89.164062 19.835938 89.242188 C 21.328125 89.882812 32.613281 100.101562 50.605469 99.96875 C 50.660156 99.96875 50.710938 99.972656 50.765625 99.972656 C 55.304688 99.972656 59.6875 99.296875 63.839844 98.050781 C 63.859375 98.046875 63.882812 98.042969 63.90625 98.035156 C 64.464844 97.875 65.039062 97.769531 65.605469 97.621094 C 66.277344 97.445312 67.363281 96.960938 68.65625 96.316406 C 71.726562 95.007812 74.628906 93.371094 77.328125 91.453125 C 78.902344 90.503906 80.1875 89.707031 80.816406 89.292969 C 83.171875 87.738281 86.53125 83.492188 88.394531 81.722656 C 89.648438 80.53125 94 73.457031 94.957031 69.734375 C 94.976562 69.65625 95.402344 68.808594 95.613281 68.257812 C 98.539062 60.527344 97.84375 56.804688 98.144531 55.980469 C 98.398438 55.292969 98.40625 53.203125 98.46875 52.898438 C 98.699219 51.796875 98.273438 49.203125 98.546875 48.394531 C 98.582031 48.269531 98.574219 48.105469 98.527344 47.988281 "/>
</g>
</g>
<mask id="mask3">
  <g filter="url(#alpha)">
<rect x="0" y="0" width="1012.5" height="487.499991" style="fill:rgb(0%,0%,0%);fill-opacity:0.2;stroke:none;"/>
  </g>
</mask>
<clipPath id="clip123">
  <path d="M 1.304688 1.714844 L 98.75 1.714844 L 98.75 99.914062 L 1.304688 99.914062 Z M 1.304688 1.714844 "/>
</clipPath>
<clipPath id="clip122">
  <rect x="0" y="0" width="100" height="101"/>
</clipPath>
<g id="surface14" clip-path="url(#clip122)">
<g clip-path="url(#clip123)" clip-rule="nonzero">
<path style=" stroke:none;fill-rule:nonzero;fill:rgb(100%,100%,100%);fill-opacity:1;" d="M 98.519531 47.832031 C 98.171875 47.050781 98.527344 46.207031 98.226562 45.363281 C 97.605469 43.625 98.269531 43.703125 95.832031 35.882812 C 95.792969 35.742188 95.648438 35.617188 95.640625 35.480469 C 95.613281 35.113281 95.472656 34.796875 95.3125 34.476562 C 95.175781 34.199219 95.140625 33.488281 94.800781 33.113281 C 94.761719 33.070312 94.730469 33.011719 94.714844 32.953125 C 94.367188 31.535156 93.570312 31.421875 93.039062 30.246094 C 90.941406 25.640625 90.1875 25.664062 89.972656 24.773438 C 89.890625 24.4375 89.683594 24.171875 89.460938 23.945312 C 88.753906 23.238281 88.011719 20.820312 87.390625 20.367188 C 87.382812 20.359375 87.128906 19.695312 86.84375 19.539062 C 86.25 19.207031 83.148438 15.414062 82.746094 15.058594 C 82.742188 15.054688 78.882812 11.929688 78.105469 11.617188 C 76.589844 11.015625 74.601562 9.339844 71.785156 7.976562 C 71.75 7.957031 69.253906 6.128906 68.550781 6.015625 C 68.144531 5.945312 67.816406 5.773438 67.476562 5.582031 C 67.46875 5.578125 66.855469 5.40625 66.511719 5.261719 C 66.503906 5.257812 61.910156 2.984375 60.972656 3.046875 C 60.753906 3.0625 60.527344 2.96875 60.308594 2.910156 C 58.121094 2.324219 58.945312 2.753906 53.636719 2.101562 C 50.921875 1.765625 48.230469 2.164062 47.429688 1.933594 C 46.761719 1.746094 42.90625 2.695312 38.613281 3.507812 C 37.851562 3.652344 35.640625 4.660156 34.796875 4.554688 C 34.789062 4.554688 32.207031 5.273438 32.199219 5.277344 C 28.117188 6.726562 20.832031 12.207031 20.824219 12.210938 C 19.984375 12.625 18.761719 14.179688 18.011719 14.730469 C 17.574219 15.050781 16.3125 16.070312 15.800781 16.695312 C 13.777344 19.199219 13.605469 18.414062 12.238281 20.648438 C 8.535156 26.703125 11.277344 22.230469 8.671875 25.855469 C 5.835938 29.8125 6.316406 30.457031 4.59375 34.921875 C 3.289062 38.304688 4.070312 35.730469 3.40625 38.375 C 3.40625 38.382812 2.847656 40.53125 2.785156 40.675781 C 2.132812 42.125 2.132812 43.941406 2.128906 43.949219 C 2.019531 44.550781 1.800781 45.140625 1.894531 45.765625 C 1.910156 45.882812 1.550781 47.125 1.589844 48.175781 C 1.882812 55.871094 1.4375 54.28125 1.945312 56.292969 C 4.929688 68.140625 4.167969 65.628906 5.554688 68.886719 C 6.347656 70.757812 6.183594 71.09375 6.816406 72.449219 C 7.226562 73.324219 13.863281 84.394531 16.296875 86.15625 C 16.496094 86.300781 16.59375 86.332031 16.898438 86.796875 C 17.363281 87.515625 17.40625 87.386719 18.886719 88.332031 C 19.878906 88.964844 19.65625 89.007812 19.832031 89.085938 C 21.320312 89.726562 32.609375 99.945312 50.601562 99.8125 C 50.65625 99.8125 50.707031 99.816406 50.757812 99.816406 C 55.296875 99.816406 59.683594 99.140625 63.835938 97.894531 C 63.855469 97.890625 63.878906 97.886719 63.902344 97.878906 C 64.460938 97.71875 65.035156 97.613281 65.597656 97.464844 C 66.273438 97.289062 67.359375 96.804688 68.648438 96.160156 C 71.722656 94.851562 74.621094 93.214844 77.320312 91.296875 C 78.898438 90.347656 80.179688 89.550781 80.808594 89.132812 C 83.167969 87.582031 86.527344 83.335938 88.390625 81.566406 C 89.640625 80.375 93.992188 73.300781 94.953125 69.578125 C 94.972656 69.5 95.394531 68.652344 95.605469 68.101562 C 98.53125 60.371094 97.839844 56.648438 98.140625 55.824219 C 98.394531 55.136719 98.402344 53.046875 98.464844 52.742188 C 98.691406 51.640625 98.269531 49.046875 98.539062 48.238281 C 98.578125 48.113281 98.570312 47.949219 98.519531 47.832031 "/>
</g>
</g>
<mask id="mask4">
  <g filter="url(#alpha)">
<rect x="0" y="0" width="1012.5" height="487.499991" style="fill:rgb(0%,0%,0%);fill-opacity:0.2;stroke:none;"/>
  </g>
</mask>
<clipPath id="clip125">
  <path d="M 1 1.714844 L 98.277344 1.714844 L 98.277344 99.914062 L 1 99.914062 Z M 1 1.714844 "/>
</clipPath>
<clipPath id="clip124">
  <rect x="0" y="0" width="99" height="101"/>
</clipPath>
<g id="surface17" clip-path="url(#clip124)">
<g clip-path="url(#clip125)" clip-rule="nonzero">
<path style=" stroke:none;fill-rule:nonzero;fill:rgb(100%,100%,100%);fill-opacity:1;" d="M 98.046875 47.832031 C 97.699219 47.050781 98.054688 46.207031 97.75 45.363281 C 97.128906 43.625 97.796875 43.703125 95.359375 35.882812 C 95.316406 35.742188 95.175781 35.617188 95.167969 35.480469 C 95.140625 35.113281 95 34.796875 94.839844 34.476562 C 94.699219 34.199219 94.664062 33.488281 94.328125 33.113281 C 94.285156 33.070312 94.253906 33.011719 94.242188 32.953125 C 93.894531 31.535156 93.097656 31.421875 92.566406 30.246094 C 90.46875 25.640625 89.714844 25.664062 89.5 24.773438 C 89.417969 24.4375 89.210938 24.171875 88.988281 23.945312 C 88.277344 23.238281 87.539062 20.820312 86.917969 20.367188 C 86.910156 20.359375 86.652344 19.695312 86.371094 19.539062 C 85.777344 19.207031 82.675781 15.414062 82.273438 15.058594 C 82.269531 15.054688 78.40625 11.929688 77.632812 11.617188 C 76.117188 11.015625 74.125 9.339844 71.3125 7.976562 C 71.277344 7.957031 68.777344 6.128906 68.078125 6.015625 C 67.671875 5.945312 67.34375 5.773438 67.003906 5.582031 C 66.996094 5.578125 66.382812 5.40625 66.039062 5.261719 C 66.03125 5.257812 61.4375 2.984375 60.496094 3.046875 C 60.28125 3.0625 60.054688 2.96875 59.835938 2.910156 C 57.644531 2.324219 58.46875 2.753906 53.164062 2.101562 C 50.445312 1.765625 47.753906 2.164062 46.953125 1.933594 C 46.289062 1.746094 42.429688 2.695312 38.140625 3.507812 C 37.378906 3.652344 35.167969 4.660156 34.324219 4.554688 C 34.316406 4.554688 31.730469 5.273438 31.722656 5.277344 C 27.644531 6.726562 20.359375 12.207031 20.351562 12.210938 C 19.511719 12.625 18.289062 14.179688 17.535156 14.730469 C 17.097656 15.050781 15.835938 16.070312 15.328125 16.695312 C 13.304688 19.199219 13.132812 18.414062 11.761719 20.648438 C 8.058594 26.703125 10.804688 22.230469 8.199219 25.855469 C 5.359375 29.8125 5.84375 30.457031 4.117188 34.921875 C 2.816406 38.304688 3.597656 35.730469 2.933594 38.375 C 2.933594 38.382812 2.375 40.53125 2.308594 40.675781 C 1.65625 42.125 1.65625 43.941406 1.652344 43.949219 C 1.546875 44.550781 1.328125 45.140625 1.421875 45.765625 C 1.433594 45.882812 1.078125 47.125 1.117188 48.175781 C 1.410156 55.871094 0.964844 54.28125 1.46875 56.292969 C 4.457031 68.140625 3.695312 65.628906 5.082031 68.886719 C 5.875 70.757812 5.710938 71.09375 6.34375 72.449219 C 6.753906 73.324219 13.386719 84.394531 15.824219 86.15625 C 16.023438 86.300781 16.121094 86.332031 16.425781 86.796875 C 16.886719 87.515625 16.933594 87.386719 18.414062 88.332031 C 19.40625 88.964844 19.179688 89.007812 19.355469 89.085938 C 20.847656 89.726562 32.132812 99.945312 50.128906 99.8125 C 50.183594 99.8125 50.230469 99.816406 50.285156 99.816406 C 54.824219 99.816406 59.210938 99.140625 63.363281 97.894531 C 63.378906 97.890625 63.402344 97.886719 63.425781 97.878906 C 63.988281 97.71875 64.5625 97.613281 65.125 97.464844 C 65.800781 97.289062 66.882812 96.804688 68.175781 96.160156 C 71.246094 94.851562 74.148438 93.214844 76.847656 91.296875 C 78.421875 90.347656 79.707031 89.550781 80.335938 89.132812 C 82.695312 87.582031 86.050781 83.335938 87.914062 81.566406 C 89.167969 80.375 93.519531 73.300781 94.476562 69.578125 C 94.496094 69.5 94.921875 68.652344 95.132812 68.101562 C 98.058594 60.371094 97.363281 56.648438 97.667969 55.824219 C 97.921875 55.136719 97.929688 53.046875 97.988281 52.742188 C 98.21875 51.640625 97.792969 49.046875 98.066406 48.238281 C 98.105469 48.113281 98.097656 47.949219 98.046875 47.832031 "/>
</g>
</g>
<mask id="mask5">
  <g filter="url(#alpha)">
<rect x="0" y="0" width="1012.5" height="487.499991" style="fill:rgb(0%,0%,0%);fill-opacity:0.2;stroke:none;"/>
  </g>
</mask>
<clipPath id="clip127">
  <path d="M 1 1.597656 L 98.386719 1.597656 L 98.386719 99.769531 L 1 99.769531 Z M 1 1.597656 "/>
</clipPath>
<clipPath id="clip126">
  <rect x="0" y="0" width="99" height="100"/>
</clipPath>
<g id="surface20" clip-path="url(#clip126)">
<g clip-path="url(#clip127)" clip-rule="nonzero">
<path style=" stroke:none;fill-rule:nonzero;fill:rgb(100%,100%,100%);fill-opacity:1;" d="M 98.15625 47.710938 C 97.808594 46.933594 98.164062 46.085938 97.863281 45.246094 C 97.242188 43.503906 97.90625 43.585938 95.46875 35.765625 C 95.429688 35.625 95.285156 35.496094 95.277344 35.359375 C 95.25 34.992188 95.109375 34.679688 94.949219 34.359375 C 94.8125 34.078125 94.777344 33.371094 94.4375 32.996094 C 94.398438 32.949219 94.367188 32.894531 94.351562 32.835938 C 94.003906 31.417969 93.207031 31.300781 92.675781 30.128906 C 90.578125 25.523438 89.824219 25.546875 89.609375 24.65625 C 89.527344 24.320312 89.320312 24.050781 89.097656 23.824219 C 88.390625 23.117188 87.648438 20.699219 87.027344 20.25 C 87.019531 20.242188 86.765625 19.578125 86.480469 19.417969 C 85.886719 19.085938 82.785156 15.292969 82.382812 14.941406 C 82.378906 14.9375 78.519531 11.808594 77.742188 11.5 C 76.226562 10.894531 74.234375 9.21875 71.421875 7.859375 C 71.386719 7.839844 68.886719 6.011719 68.1875 5.898438 C 67.78125 5.828125 67.453125 5.65625 67.113281 5.464844 C 67.105469 5.460938 66.492188 5.289062 66.148438 5.144531 C 66.140625 5.140625 61.546875 2.863281 60.609375 2.929688 C 60.390625 2.945312 60.164062 2.847656 59.945312 2.792969 C 57.757812 2.207031 58.582031 2.632812 53.273438 1.984375 C 50.558594 1.648438 47.867188 2.046875 47.066406 1.816406 C 46.398438 1.628906 42.542969 2.578125 38.25 3.386719 C 37.488281 3.535156 35.277344 4.542969 34.433594 4.4375 C 34.425781 4.4375 31.84375 5.15625 31.835938 5.160156 C 27.753906 6.609375 20.46875 12.089844 20.460938 12.09375 C 19.621094 12.503906 18.398438 14.0625 17.644531 14.613281 C 17.210938 14.933594 15.949219 15.949219 15.4375 16.578125 C 13.414062 19.078125 13.242188 18.296875 11.875 20.527344 C 8.171875 26.582031 10.914062 22.113281 8.308594 25.738281 C 5.472656 29.691406 5.953125 30.339844 4.230469 34.800781 C 2.925781 38.1875 3.707031 35.613281 3.042969 38.253906 C 3.042969 38.261719 2.484375 40.410156 2.417969 40.558594 C 1.769531 42.007812 1.769531 43.824219 1.765625 43.832031 C 1.65625 44.429688 1.4375 45.019531 1.53125 45.648438 C 1.546875 45.761719 1.1875 47.003906 1.226562 48.058594 C 1.519531 55.75 1.074219 54.164062 1.582031 56.175781 C 4.566406 68.019531 3.804688 65.511719 5.191406 68.769531 C 5.984375 70.640625 5.820312 70.976562 6.453125 72.328125 C 6.863281 73.207031 13.5 84.277344 15.933594 86.035156 C 16.132812 86.183594 16.230469 86.210938 16.535156 86.679688 C 17 87.398438 17.042969 87.269531 18.523438 88.210938 C 19.515625 88.847656 19.289062 88.890625 19.46875 88.964844 C 20.957031 89.609375 32.246094 99.828125 50.238281 99.695312 C 50.292969 99.695312 50.34375 99.699219 50.394531 99.699219 C 54.933594 99.699219 59.320312 99.019531 63.472656 97.777344 C 63.492188 97.769531 63.515625 97.765625 63.535156 97.757812 C 64.097656 97.601562 64.671875 97.496094 65.234375 97.34375 C 65.910156 97.167969 66.996094 96.6875 68.285156 96.042969 C 71.355469 94.734375 74.257812 93.097656 76.957031 91.175781 C 78.535156 90.226562 79.816406 89.433594 80.445312 89.015625 C 82.804688 87.464844 86.164062 83.21875 88.023438 81.449219 C 89.277344 80.253906 93.628906 73.183594 94.589844 69.457031 C 94.609375 69.382812 95.03125 68.53125 95.242188 67.980469 C 98.167969 60.253906 97.476562 56.527344 97.777344 55.707031 C 98.03125 55.015625 98.039062 52.929688 98.101562 52.621094 C 98.328125 51.523438 97.902344 48.929688 98.175781 48.117188 C 98.214844 47.996094 98.207031 47.832031 98.15625 47.710938 "/>
</g>
</g>
<mask id="mask6">
  <g filter="url(#alpha)">
<rect x="0" y="0" width="1012.5" height="487.499991" style="fill:rgb(0%,0%,0%);fill-opacity:0.2;stroke:none;"/>
  </g>
</mask>
<clipPath id="clip129">
  <path d="M 1.3125 1.597656 L 98.757812 1.597656 L 98.757812 99.769531 L 1.3125 99.769531 Z M 1.3125 1.597656 "/>
</clipPath>
<clipPath id="clip128">
  <rect x="0" y="0" width="100" height="100"/>
</clipPath>
<g id="surface23" clip-path="url(#clip128)">
<g clip-path="url(#clip129)" clip-rule="nonzero">
<path style=" stroke:none;fill-rule:nonzero;fill:rgb(100%,100%,100%);fill-opacity:1;" d="M 98.527344 47.710938 C 98.179688 46.933594 98.535156 46.085938 98.230469 45.246094 C 97.613281 43.503906 98.277344 43.585938 95.839844 35.765625 C 95.796875 35.625 95.65625 35.496094 95.648438 35.359375 C 95.621094 34.992188 95.480469 34.679688 95.320312 34.359375 C 95.179688 34.078125 95.144531 33.371094 94.808594 32.996094 C 94.765625 32.949219 94.734375 32.894531 94.722656 32.835938 C 94.375 31.417969 93.578125 31.300781 93.046875 30.128906 C 90.949219 25.523438 90.195312 25.546875 89.980469 24.65625 C 89.898438 24.320312 89.691406 24.050781 89.46875 23.824219 C 88.761719 23.117188 88.019531 20.699219 87.398438 20.25 C 87.390625 20.242188 87.132812 19.578125 86.851562 19.417969 C 86.257812 19.085938 83.15625 15.292969 82.753906 14.941406 C 82.75 14.9375 78.886719 11.808594 78.113281 11.5 C 76.597656 10.894531 74.605469 9.21875 71.792969 7.859375 C 71.757812 7.839844 69.257812 6.011719 68.558594 5.898438 C 68.152344 5.828125 67.824219 5.65625 67.484375 5.464844 C 67.476562 5.460938 66.863281 5.289062 66.519531 5.144531 C 66.511719 5.140625 61.917969 2.863281 60.980469 2.929688 C 60.761719 2.945312 60.535156 2.847656 60.316406 2.792969 C 58.125 2.207031 58.949219 2.632812 53.644531 1.984375 C 50.925781 1.648438 48.234375 2.046875 47.433594 1.816406 C 46.769531 1.628906 42.910156 2.578125 38.621094 3.386719 C 37.859375 3.535156 35.648438 4.542969 34.804688 4.4375 C 34.796875 4.4375 32.210938 5.15625 32.203125 5.160156 C 28.125 6.609375 20.839844 12.089844 20.832031 12.09375 C 19.992188 12.503906 18.769531 14.0625 18.015625 14.613281 C 17.578125 14.933594 16.320312 15.949219 15.808594 16.578125 C 13.785156 19.078125 13.613281 18.296875 12.242188 20.527344 C 8.539062 26.582031 11.285156 22.113281 8.679688 25.738281 C 5.839844 29.691406 6.324219 30.339844 4.597656 34.800781 C 3.296875 38.1875 4.078125 35.613281 3.414062 38.253906 C 3.414062 38.261719 2.855469 40.410156 2.789062 40.558594 C 2.136719 42.007812 2.136719 43.824219 2.132812 43.832031 C 2.027344 44.429688 1.808594 45.019531 1.902344 45.648438 C 1.917969 45.761719 1.558594 47.003906 1.597656 48.058594 C 1.890625 55.75 1.445312 54.164062 1.949219 56.175781 C 4.9375 68.019531 4.175781 65.511719 5.5625 68.769531 C 6.355469 70.640625 6.191406 70.976562 6.824219 72.328125 C 7.234375 73.207031 13.867188 84.277344 16.304688 86.035156 C 16.503906 86.183594 16.601562 86.210938 16.90625 86.679688 C 17.367188 87.398438 17.414062 87.269531 18.894531 88.210938 C 19.886719 88.847656 19.660156 88.890625 19.835938 88.964844 C 21.328125 89.609375 32.613281 99.828125 50.609375 99.695312 C 50.664062 99.695312 50.710938 99.699219 50.765625 99.699219 C 55.304688 99.699219 59.691406 99.019531 63.84375 97.777344 C 63.863281 97.769531 63.882812 97.765625 63.90625 97.757812 C 64.46875 97.601562 65.042969 97.496094 65.605469 97.34375 C 66.28125 97.167969 67.363281 96.6875 68.65625 96.042969 C 71.726562 94.734375 74.628906 93.097656 77.328125 91.175781 C 78.902344 90.226562 80.1875 89.433594 80.816406 89.015625 C 83.175781 87.464844 86.53125 83.21875 88.394531 81.449219 C 89.648438 80.253906 94 73.183594 94.957031 69.457031 C 94.976562 69.382812 95.402344 68.53125 95.613281 67.980469 C 98.539062 60.253906 97.84375 56.527344 98.148438 55.707031 C 98.402344 55.015625 98.410156 52.929688 98.46875 52.621094 C 98.699219 51.523438 98.273438 48.929688 98.546875 48.117188 C 98.585938 47.996094 98.578125 47.832031 98.527344 47.710938 "/>
</g>
</g>
<mask id="mask7">
  <g filter="url(#alpha)">
<rect x="0" y="0" width="1012.5" height="487.499991" style="fill:rgb(0%,0%,0%);fill-opacity:0.2;stroke:none;"/>
  </g>
</mask>
<clipPath id="clip131">
  <path d="M 0.691406 2 L 98 2 L 98 100 L 0.691406 100 Z M 0.691406 2 "/>
</clipPath>
<clipPath id="clip130">
  <rect x="0" y="0" width="99" height="101"/>
</clipPath>
<g id="surface26" clip-path="url(#clip130)">
<g clip-path="url(#clip131)" clip-rule="nonzero">
<path style=" stroke:none;fill-rule:nonzero;fill:rgb(100%,100%,100%);fill-opacity:1;" d="M 97.90625 47.988281 C 97.558594 47.207031 97.914062 46.363281 97.613281 45.519531 C 96.992188 43.78125 97.660156 43.859375 95.21875 36.039062 C 95.179688 35.898438 95.035156 35.773438 95.027344 35.636719 C 95 35.269531 94.859375 34.953125 94.699219 34.632812 C 94.5625 34.355469 94.527344 33.644531 94.1875 33.273438 C 94.148438 33.226562 94.117188 33.167969 94.101562 33.109375 C 93.753906 31.691406 92.957031 31.578125 92.425781 30.402344 C 90.328125 25.796875 89.574219 25.820312 89.359375 24.929688 C 89.277344 24.59375 89.070312 24.328125 88.847656 24.101562 C 88.140625 23.394531 87.398438 20.976562 86.777344 20.523438 C 86.769531 20.515625 86.515625 19.851562 86.230469 19.695312 C 85.636719 19.363281 82.535156 15.570312 82.132812 15.214844 C 82.128906 15.210938 78.269531 12.085938 77.492188 11.773438 C 75.976562 11.171875 73.988281 9.496094 71.171875 8.132812 C 71.136719 8.113281 68.640625 6.285156 67.9375 6.171875 C 67.53125 6.101562 67.203125 5.929688 66.863281 5.738281 C 66.855469 5.734375 66.242188 5.5625 65.898438 5.417969 C 65.890625 5.414062 61.296875 3.140625 60.359375 3.203125 C 60.140625 3.21875 59.914062 3.125 59.695312 3.066406 C 57.507812 2.480469 58.332031 2.910156 53.023438 2.257812 C 50.308594 1.921875 47.617188 2.320312 46.816406 2.089844 C 46.148438 1.902344 42.292969 2.851562 38 3.664062 C 37.238281 3.808594 35.027344 4.816406 34.183594 4.710938 C 34.175781 4.710938 31.59375 5.429688 31.585938 5.433594 C 27.503906 6.882812 20.21875 12.363281 20.210938 12.367188 C 19.371094 12.78125 18.148438 14.335938 17.398438 14.886719 C 16.960938 15.210938 15.699219 16.226562 15.1875 16.851562 C 13.164062 19.355469 12.992188 18.570312 11.625 20.804688 C 7.921875 26.859375 10.664062 22.386719 8.058594 26.011719 C 5.222656 29.96875 5.703125 30.613281 3.980469 35.078125 C 2.675781 38.460938 3.457031 35.886719 2.792969 38.53125 C 2.792969 38.539062 2.234375 40.6875 2.171875 40.832031 C 1.519531 42.28125 1.519531 44.097656 1.515625 44.105469 C 1.40625 44.707031 1.1875 45.296875 1.28125 45.921875 C 1.296875 46.039062 0.941406 47.28125 0.976562 48.332031 C 1.269531 56.027344 0.824219 54.441406 1.332031 56.449219 C 4.316406 68.296875 3.554688 65.785156 4.941406 69.042969 C 5.734375 70.914062 5.570312 71.25 6.203125 72.605469 C 6.613281 73.480469 13.25 84.550781 15.683594 86.3125 C 15.882812 86.457031 15.980469 86.488281 16.285156 86.953125 C 16.75 87.671875 16.792969 87.542969 18.273438 88.488281 C 19.265625 89.121094 19.042969 89.164062 19.21875 89.242188 C 20.707031 89.882812 31.996094 100.101562 49.988281 99.96875 C 50.042969 99.96875 50.09375 99.972656 50.144531 99.972656 C 54.683594 99.972656 59.070312 99.296875 63.222656 98.050781 C 63.242188 98.046875 63.265625 98.042969 63.289062 98.035156 C 63.847656 97.875 64.421875 97.769531 64.984375 97.621094 C 65.660156 97.445312 66.746094 96.960938 68.035156 96.316406 C 71.109375 95.007812 74.007812 93.371094 76.707031 91.453125 C 78.285156 90.503906 79.566406 89.707031 80.195312 89.292969 C 82.554688 87.738281 85.914062 83.492188 87.777344 81.722656 C 89.027344 80.53125 93.378906 73.457031 94.339844 69.734375 C 94.359375 69.65625 94.78125 68.808594 94.992188 68.257812 C 97.917969 60.527344 97.226562 56.804688 97.527344 55.980469 C 97.78125 55.292969 97.789062 53.203125 97.851562 52.898438 C 98.078125 51.796875 97.65625 49.203125 97.925781 48.394531 C 97.964844 48.269531 97.957031 48.105469 97.90625 47.988281 "/>
</g>
</g>
<mask id="mask8">
  <g filter="url(#alpha)">
<rect x="0" y="0" width="1012.5" height="487.499991" style="fill:rgb(0%,0%,0%);fill-opacity:0.2;stroke:none;"/>
  </g>
</mask>
<clipPath id="clip133">
  <path d="M 0.394531 1.113281 L 97.84375 1.113281 L 97.84375 99.28125 L 0.394531 99.28125 Z M 0.394531 1.113281 "/>
</clipPath>
<clipPath id="clip132">
  <rect x="0" y="0" width="99" height="100"/>
</clipPath>
<g id="surface29" clip-path="url(#clip132)">
<g clip-path="url(#clip133)" clip-rule="nonzero">
<path style=" stroke:none;fill-rule:nonzero;fill:rgb(100%,100%,100%);fill-opacity:1;" d="M 97.613281 47.230469 C 97.265625 46.449219 97.621094 45.605469 97.316406 44.761719 C 96.695312 43.023438 97.363281 43.105469 94.925781 35.28125 C 94.882812 35.140625 94.742188 35.015625 94.734375 34.878906 C 94.707031 34.511719 94.566406 34.195312 94.40625 33.875 C 94.265625 33.597656 94.230469 32.890625 93.894531 32.515625 C 93.851562 32.46875 93.820312 32.410156 93.804688 32.351562 C 93.460938 30.933594 92.664062 30.820312 92.132812 29.644531 C 90.035156 25.042969 89.277344 25.0625 89.0625 24.171875 C 88.984375 23.835938 88.777344 23.570312 88.554688 23.34375 C 87.84375 22.636719 87.105469 20.21875 86.484375 19.765625 C 86.476562 19.761719 86.21875 19.09375 85.9375 18.9375 C 85.34375 18.605469 82.242188 14.8125 81.839844 14.460938 C 81.835938 14.457031 77.972656 11.328125 77.199219 11.015625 C 75.679688 10.414062 73.691406 8.738281 70.878906 7.375 C 70.84375 7.355469 68.34375 5.53125 67.644531 5.414062 C 67.238281 5.347656 66.910156 5.171875 66.570312 4.984375 C 66.5625 4.980469 65.949219 4.804688 65.601562 4.660156 C 65.59375 4.65625 61.003906 2.382812 60.0625 2.445312 C 59.84375 2.460938 59.621094 2.367188 59.402344 2.308594 C 57.210938 1.722656 58.035156 2.152344 52.730469 1.503906 C 50.011719 1.164062 47.320312 1.5625 46.519531 1.332031 C 45.851562 1.148438 41.996094 2.09375 37.707031 2.90625 C 36.945312 3.050781 34.730469 4.0625 33.890625 3.953125 C 33.882812 3.953125 31.296875 4.671875 31.289062 4.675781 C 27.210938 6.125 19.921875 11.605469 19.914062 11.609375 C 19.078125 12.023438 17.851562 13.578125 17.101562 14.128906 C 16.664062 14.453125 15.402344 15.46875 14.894531 16.097656 C 12.871094 18.597656 12.699219 17.8125 11.328125 20.046875 C 7.625 26.101562 10.371094 21.628906 7.765625 25.253906 C 4.925781 29.210938 5.410156 29.855469 3.683594 34.320312 C 2.382812 37.703125 3.164062 35.128906 2.5 37.773438 C 2.5 37.78125 1.941406 39.929688 1.875 40.074219 C 1.222656 41.523438 1.222656 43.339844 1.21875 43.347656 C 1.113281 43.949219 0.894531 44.539062 0.984375 45.164062 C 1 45.28125 0.644531 46.523438 0.683594 47.574219 C 0.976562 55.269531 0.53125 53.683594 1.035156 55.695312 C 4.023438 67.539062 3.257812 65.027344 4.648438 68.289062 C 5.441406 70.15625 5.277344 70.492188 5.910156 71.847656 C 6.320312 72.722656 12.953125 83.796875 15.386719 85.554688 C 15.589844 85.699219 15.6875 85.730469 15.992188 86.195312 C 16.453125 86.914062 16.5 86.785156 17.980469 87.730469 C 18.972656 88.367188 18.746094 88.40625 18.921875 88.484375 C 20.414062 89.125 31.699219 99.34375 49.695312 99.210938 C 49.75 99.210938 49.796875 99.214844 49.851562 99.214844 C 54.390625 99.214844 58.777344 98.539062 62.925781 97.296875 C 62.945312 97.289062 62.96875 97.285156 62.992188 97.277344 C 63.550781 97.121094 64.128906 97.011719 64.691406 96.863281 C 65.367188 96.6875 66.449219 96.207031 67.742188 95.558594 C 70.8125 94.25 73.714844 92.613281 76.414062 90.695312 C 77.988281 89.746094 79.273438 88.949219 79.902344 88.535156 C 82.261719 86.980469 85.617188 82.734375 87.480469 80.964844 C 88.734375 79.773438 93.085938 72.699219 94.042969 68.976562 C 94.0625 68.898438 94.488281 68.050781 94.699219 67.5 C 97.625 59.769531 96.929688 56.046875 97.234375 55.222656 C 97.488281 54.535156 97.492188 52.445312 97.554688 52.140625 C 97.785156 51.039062 97.359375 48.445312 97.632812 47.636719 C 97.671875 47.511719 97.664062 47.347656 97.613281 47.230469 "/>
</g>
</g>
</defs>
<g id="surface1">
<use xlink:href="#surface5" transform="matrix(1,0,0,1,107,0)" mask="url(#mask0)"/>
<use xlink:href="#surface8" transform="matrix(1,0,0,1,457,18)" mask="url(#mask1)"/>
<use xlink:href="#surface11" transform="matrix(1,0,0,1,582,318)" mask="url(#mask2)"/>
<use xlink:href="#surface14" transform="matrix(1,0,0,1,592,81)" mask="url(#mask3)"/>
<use xlink:href="#surface17" transform="matrix(1,0,0,1,320,81)" mask="url(#mask4)"/>
<use xlink:href="#surface20" transform="matrix(1,0,0,1,282,204)" mask="url(#mask5)"/>
<use xlink:href="#surface23" transform="matrix(1,0,0,1,631,204)" mask="url(#mask6)"/>
<use xlink:href="#surface26" transform="matrix(1,0,0,1,331,318)" mask="url(#mask7)"/>
<use xlink:href="#surface29" transform="matrix(1,0,0,1,461,368)" mask="url(#mask8)"/>
</g>
</svg>
